<mxfile host="app.diagrams.net" agent="Mozilla/5.0 (X11; Linux x86_64) AppleWebKit/537.36 (KHTML, like Gecko) Chrome/135.0.0.0 Safari/537.36 SberBrowser/27.0.0.0" version="27.1.4">
  <diagram name="Страница — 1" id="WULPb32uHRo-QUS4CWuH">
    <mxGraphModel dx="1372" dy="743" grid="1" gridSize="10" guides="1" tooltips="1" connect="1" arrows="1" fold="1" page="1" pageScale="1" pageWidth="827" pageHeight="1169" math="0" shadow="0">
      <root>
        <mxCell id="0" />
        <mxCell id="1" parent="0" />
        <mxCell id="hpLpnZOfaxVlts9n7Vxk-18" value="&lt;table cellpadding=&quot;0&quot; cellspacing=&quot;0&quot; class=&quot;xslData;XLSY;v2;28240;-1;-1;BwaAAgAAB6ACAAAJLAQAAAHpEwAAAulpAAADPAQAAAQ3BQAAAAAAAAAAAAAAAAAAAAAAAAAAAAAAAAAAAAAAAAAAAAAAAAAAAAAAAAAAAAAAAAAAAAAAAAAAAAAAAAAAAAAAAAAAAAAAAAAAAAAAAAAAAAAAAAAAAAAAAAAAAAAAAAAAAAAAAAAAAAAAAAAAAAAAAAAAAAAAAAAAAAAAAAAAAAAAAAAAAAAAAAAAAAAAAAAAAAAAAAAAAAAAAAAAAAAAAAAAAAAAAAAAAAAAAAAAAAAAAAAAAAAAAAAAAAAAAAAAAAAAAAAAAAAAAAAAAAAAAAAAAAAAAAAAAAAAAAAAAAAAAAAAAAAAAAAAAAAAAAAAAAAAAAAAAAAAAAAAAAAAAAAAAAAAAAAAAAAAAAAAAAAAAAAAAAAAAAAAAAAAAAAAAAAAAAAAAAAAAAAAAAAAAAAAAAAAAAAAAAAAAAAAAAAAAAAAAAAAAAAAAAAAAAAAAAAAAAAAAAAAAAAAAAAAAAAAAAAAAAAAAAAAAAAAAAAAAAAAAAAAAAAAAAAAAAAAAAAAAAAAAAAAAAAAAAAAAAAAAAAAAAAAAAAAAAAAAAAAAAAAAAAAAAAAAAAAAAAAAAAAAAAAAAAAAAAAAAAAAAAAAAAAAAAAAAAAAAAAAAAAAAAAAAAAAAAAAAAAAAAAAAAAAAAAAAAAAAAAAAAAAAAAAAAAAAAAAAAAAAAAAAAAAAAAAAAAAAAAAAAAAAAAAAAAAAAAAAAAAAAAAAAAAAAAAAAAAAAAAAAAAAAAAAAAAAAAAAAAAAAAAAAAAAAAAAAAAAAAAAAAAAAAAAAAAAAAAAAAAAAAAAAAAAEbAAAA+gMAAAAADAANAA4ADwD7AAcAAAD6EgAAAAD7AocBAAD6ABAAAAAfBEAEOAQ8BDUEQARLBCAAKAAzACkALgB4AGwAcwB4AAIWAAAAMgAwADcAMwA0ADkANwA2AEAAcwBpAGcAbQBhAC4AcwBiAHIAZgAuAHIAdQADAQAAADEABBQAAAAyADAAMgA1AC0AMAA1AC0AMAA2AFQAMAA4ADoAMAA4ADoAMAA3AFoABRQAAAAyADAAMgA1AC0AMAA2AC0AMQA2AFQAMQA3ADoANAA2ADoAMwAzAFoA+wDJAAAA+gdEAAAALwBoAG8AbQBlAC8AcwBpAGcAbQBhAC4AcwBiAHIAZgAuAHIAdQBAADIAMAA3ADMANAA5ADcANgAvACAEMAQxBD4ERwQ4BDkEIABBBEIEPgQ7BC8AGgQ+BDIENQQ9BDAEPQRCBEsELwAfBEAEOAQ8BDUEQARLBCAAKAAzACkALgB4AGwAcwB4AAkUAAAAZABhADAAMgBjADQAMQAxADgANgA3ADUAZgBlADMANgBjADQAZAA5AAsEAAAAMQAwADQAOQD7MAsAAAD6+wAEAAAAAAAAAPcAAAAAAAAAAAELAAAAAgYAAAAABAAAAAAD2AAAAARnAAAAACoAAABfAHgAbABuAG0ALgBfAEYAaQBsAHQAZQByAEQAYQB0AGEAYgBhAHMAZQABJAAAAB8EQAQ4BDwENQRABEsEIQAkAEEAJAAyADoAJABHACQANgAzAAIEAAAAAAAAAAMBAAAAAQRnAAAAACoAAABfAHgAbABuAG0ALgBfAEYAaQBsAHQAZQByAEQAYQB0AGEAYgBhAHMAZQABJAAAAB8EQAQ4BDwENQRABEsEIQAkAEEAJAAyADoAJABHACQANgAzAAIEAAAAAAAAAAMBAAAAAQ8AAAAArg4AAACpDgAAAS8AAAAABg4AAAAfBEAEOAQ8BDUEQARLBAEEAQAAAAIBAgMGDAAAAEEAMQA6AEcAMgA1AAIaAQAAAx8AAAACBAEAAAADBAEAAAAEBAEAAAAFBQAAAAAAbClABgEBAx8AAAACBAIAAAADBAIAAAAEBAEAAAAFBQAAAAAA2zxABgEBAx8AAAACBAMAAAADBAMAAAAEBAEAAAAFBQAAAABAUlFABgEBAx8AAAACBAQAAAADBAQAAAAEBAEAAAAFBQAAAACAJEhABgEBAxwAAAACBAUAAAADBAUAAAAEBAIAAAAFBQAAAAAASCJAAx8AAAACBAYAAAADBAYAAAAEBAEAAAAFBQAAAAAAtjBABgEBAx8AAAACBAcAAAADBAcAAAAEBAEAAAAFBQAAAAAAbTBABgEBAxwAAAACBABAAAADBAgAAAAEBAEAAAAFBQAAAAAASCJAFi0AAAAXKAAAABQjAAAAAAQAAABBADEAAQQAAAAAAAAAAgwAAABBADEAOgBHADIANQALCgAAAAEFzczMzMxMLEAOPAAAAAAFR+F6FK7HMUABBczMzMzMDDNAAgVH4XoUrscxQAMFzMzMzMwMM0AEBXsUrkfheh5ABQV7FK5H4XoeQA8/AAAAAQEJAgEAAwEABAQBAAAABQEABgEACAQBAAAACQQBAAAACgRYAgAAAAEBCwEADwRkAAAAEAEAEQEBEgRYAgAAEAYAAAAAAQABAQAJYgwAACNdDAAAcgcAAJEBAAARAAAAAAMAAAAAAABAAAAAAAAHDgAAAAADAAAAAAAAAAAABw4BAAAAAwAAAAEAAAAAAAcOAgAAAAMAAAACAAAAAAAHDgMAAAADAAAAAwAAAAAAAQoEAAAAAwAAAAAAAQoFAAAAAwAAAAAAAQoGAAAAAwAAAAAAABEBAAAAAwAAAAAAAEAAAAAAAAcOAAAAAAMAAAAEAAAAAAAHDgEAAAADAAAABQAAAAAABw4CAAAAAwAAAAYAAAAAAAcOAwAAAAMAAAAHAAAAAAAHDgQAAAAEAAAACAAAAAAABw4FAAAAAwAAAAkAAAAAAAcOBgAAAAMAAAAKAAAAAAAAEQIAAAAAAAAAAAAAAAAAAAAABw4AAAAAAQAAAAsAAAAAAAcOAQAAAAEAAAAMAAAAAAAHDgIAAAABAAAADQAAAAAABw4DAAAABQAAAA4AAAAAAAcOBAAAAAYAAAAPAAAAAAAFEgUAAAABAAAAAAAAAAAADEAAAAEKBgAAAAUAAAAAAAARAwAAAAAAAAAAAAAAAAAAAAAHDgAAAAABAAAACwAAAAAABw4BAAAAAAAAAAwAAAAAAAcOAgAAAAEAAAAQAAAAAAAHDgMAAAAFAAAAEQAAAAAABw4EAAAABgAAAA8AAAAAAAUSBQAAAAEAAAAAAAAAAAASQAAAABEEAAAAAAAAAAAAAAAAAAAAAAcOAAAAAAEAAAALAAAAAAAHDgEAAAAAAAAADAAAAAAABw4CAAAAAAAAABIAAAAAAAcOAwAAAAUAAAARAAAAAAAHDgQAAAAGAAAADwAAAAAABRIFAAAAAQAAAAAAAAAAABBAAAAAEQUAAAAAAAAAAAAAAAAAAAAABw4AAAAAAQAAAAsAAAAAAAcOAQAAAAAAAAAMAAAAAAAHDgIAAAAAAAAAEwAAAAAABw4DAAAABQAAAA4AAAAAAAcOBAAAAAYAAAAPAAAAAAAFEgUAAAABAAAAAAAAAAAAEEAAAAARBgAAAAAAAAAAAAAAAAAAAAAHDgAAAAABAAAACwAAAAAABw4BAAAAAAAAAAwAAAAAAAcOAgAAAAAAAAAUAAAAAAAHDgMAAAAFAAAAEQAAAAAABw4EAAAABgAAAA8AAAAAAAUSBQAAAAEAAAAAAAAAAAAEQAAAABEHAAAAAAAAAAAAAAAAAAAAAAcOAAAAAAEAAAALAAAAAAAHDgEAAAAAAAAADAAAAAAABw4CAAAAAAAAABUAAAAAAAcOAwAAAAUAAAARAAAAAAAHDgQAAAAGAAAADwAAAAAABRIFAAAAAQAAAAAAAAAAAAhAAAAAEQgAAAAAAAAAAAAAAAAAAAAABw4AAAAAAQAAABYAAAAAAAcOAQAAAAEAAAAMAAAAAAAHDgIAAAABAAAAFwAAAAAABw4DAAAABQAAABgAAAAAAAcOBAAAAAYAAAAPAAAAAAAFEgUAAAABAAAAAAAAAAAAFEAAAAEKBgAAAAUAAAAAAAARCQAAAAAAAAAAAAAAAAAAAAAHDgAAAAABAAAAFgAAAAAABw4BAAAAAQAAAAwAAAAAAAcOAgAAAAEAAAAZAAAAAAAHDgMAAAAFAAAAGgAAAAAABw4EAAAABgAAAA8AAAAAAAUSBQAAAAEAAAAAAAAAAAAUQAAAAQoGAAAABQAAAAAAABEKAAAAAAAAAAAAAAAAAAAAAAcOAAAAAAEAAAAWAAAAAAAHDgEAAAABAAAADAAAAAAABw4CAAAAAQAAABsAAAAAAAcOAwAAAAUAAAAYAAAAAAAHDgQAAAAGAAAADwAAAAAABRIFAAAAAQAAAAAAAAAAABBAAAAAEQsAAAAAAAAAAAAAAAAAAAAABw4AAAAAAQAAABwAAAAAAAcOAQAAAAEAAAAMAAAAAAAHDgIAAAABAAAAHQAAAAAABw4DAAAABQAAAB4AAAAAAAcOBAAAAAYAAAAPAAAAAAAFEgUAAAABAAAAmpmZmZmZ2T8AAAEKBgAAAAUAAAAAAAARDAAAAAAAAAAAAAAAAAAAAAAHDgAAAAABAAAAHAAAAAAABw4BAAAAAAAAAAwAAAAAAAcOAgAAAAEAAAAfAAAAAAAHDgMAAAAFAAAAHgAAAAAABw4EAAAABgAAAA8AAAAAAAUSBQAAAAEAAAAAAAAAAADQPwAAABENAAAAAAAAAAAAAAAAAAAAAAcOAAAAAAEAAAAgAAAAAAAHDgEAAAABAAAAIQAAAAAABw4CAAAAAQAAACIAAAAAAAcOAwAAAAUAAAAhAAAAAAAHDgQAAAAGAAAAIwAAAAAABRIFAAAABwAAAAAAAADQEmNBAAAHDgYAAAAFAAAAJAAAAAAAABEOAAAAAAAAAAAAAAAAAAAAAAcOAAAAAAEAAAAlAAAAAAAHDgEAAAABAAAAIQAAAAAABw4CAAAAAQAAACYAAAAAAAcOAwAAAAUAAAAhAAAAAAAHDgQAAAAGAAAAIwAAAAAABRIFAAAABwAAAAAAAADQEmNBAAAHDgYAAAAFAAAAJAAAAAAAABEPAAAAAAAAAAAAAAAAAAAAAAcOAAAAAAEAAAAnAAAAAAAHDgEAAAABAAAAIQAAAAAABw4CAAAAAQAAACgAAAAAAAcOAwAAAAUAAAAhAAAAAAAHDgQAAAAGAAAAIwAAAAAABRIFAAAABQAAAAAAAAAAACRAAAAHDgYAAAAFAAAAKQAAAAAAABEQAAAAAAAAAAAAAAAAAAAAAAcOAAAAAAEAAAAnAAAAAAAHDgEAAAABAAAAIQAAAAAABw4CAAAAAQAAACoAAAAAAAcOAwAAAAUAAAAhAAAAAAAHDgQAAAAGAAAAIwAAAAAABRIFAAAABQAAAAAAAAAAAC5AAAAHDgYAAAAFAAAAKQAAAAAAABERAAAAAAAAAAAAAAAAAAAAAAcOAAAAAAEAAAAnAAAAAAAHDgEAAAABAAAAIQAAAAAABw4CAAAAAQAAACsAAAAAAAcOAwAAAAUAAAAhAAAAAAAHDgQAAAAGAAAAIwAAAAAABRIFAAAABQAAAAAAAAAAABRAAAAHDgYAAAAFAAAALAAAAAAAABESAAAAAAAAAAAAAAAAAAAAAAcOAAAAAAEAAAAnAAAAAAAHDgEAAAAAAAAAIQAAAAAABw4CAAAAAAAAAC0AAAAAAAcOAwAAAAUAAAAhAAAAAAAHDgQAAAAGAAAAIwAAAAAABRIFAAAABQAAAAAAAAAAABRAAAAHDgYAAAAFAAAAKQAAAAAAABETAAAAAQAAAAAAAEAAAAAAAAcOAAAAAAEAAAAuAAAAAAAHDgEAAAABAAAALwAAAAAABw4CAAAAAQAAADAAAAAAAAcOAwAAAAUAAAAxAAAAAAAHDgQAAAAGAAAAMgAAAAAABRIFAAAAAQAAAAAAAAAAAPg/AAABCgYAAAAFAAAAAAAAERQAAAAIAAAAAAAAQAAAAAAABw4AAAAACAAAAC4AAAAAAAcOAQAAAAgAAAAvAAAAAAAHDgIAAAAIAAAAMwAAAAAABw4DAAAACQAAADQAAAAAAAcOBAAAAAoAAAAyAAAAAAAHDgUAAAALAAAANQAAAAAAAQoGAAAACQAAAAAAABEVAAAAAAAAAAAAAAAAAAAAAAcOAAAAAAEAAAAuAAAAAAAHDgEAAAABAAAALwAAAAAABw4CAAAAAQAAADYAAAAAAAcOAwAAAAUAAAAxAAAAAAAHDgQAAAAGAAAAMgAAAAAABRIFAAAAAQAAAM3MzMzMzPQ/AAABCgYAAAAFAAAAAAAAERYAAAAAAAAAAAAAAAAAAAAABw4AAAAAAQAAAC4AAAAAAAcOAQAAAAAAAAA3AAAAAAAHDgIAAAABAAAAOAAAAAAABw4DAAAABQAAADQAAAAAAAcOBAAAAAYAAAAyAAAAAAAFEgUAAAABAAAAAAAAAAAA+D8AAAARFwAAAAAAAAAAAAAAAAAAAAAHDgAAAAABAAAAOQAAAAAABw4BAAAAAAAAADoAAAAAAAcOAgAAAAAAAAA7AAAAAAAHDgMAAAAFAAAAOgAAAAAAAQoEAAAABgAAAAAAABEYAAAAAAAAAAAAAAAAAAAAAAcOAAAAAAEAAAA8AAAAAAAHDgEAAAABAAAAPQAAAAAABw4CAAAAAQAAAD4AAAAAAAcOAwAAAAUAAAA/AAAAAAAHDgQAAAAGAAAAQAAAAAAABRIFAAAABwAAAAAAAMALWuZBAAAHDgYAAAAFAAAAJAAAAAAAkgEABQAAAAAHDwAAAAgKAAAARAAxADoARwAxABsAAAAA/FUAAAALAAAAAwYAAAAaBD4ENAQALQAAAAMoAAAAGgRABDAEQgQ6BD4ENQQgAD0EMAQ4BDwENQQ9BD4EMgQwBD0EOAQ1BAArAAAAAyYAAAAfBD4EOwQ9BD4ENQQgAD0EMAQ4BDwENQQ9BD4EMgQwBD0EOAQ1BAAXAAAAAxIAAAAeBEIEMgQ1BEIEIABMAEwATQAAHQAAAAMYAAAAYwBvAGQAZQBGAG8AcgBQAHIAaQBuAHQAAA0AAAADCAAAAG4AYQBtAGUAAA0AAAADCAAAAHQAZQB4AHQAABsAAAADFgAAACEEPgQ6BEAEMARJBDUEPQQ9BD4ENQQADQAAAAMIAAAAFwQ9BDAEOgQAFQAAAAMQAAAAFwQ9BDAERwQ1BD0EOAQ1BAAfAAAAAxoAAAAVBDQEIAA4BDcEPAQvADIEMAQ7BE4EQgQwBAAXAAAAAxIAAABTAEYAXwAxAC4AMQBfAFYAMQAAUwAAAANOAAAAIQQ+BDEEOwROBDQENQQ9BDgENQQgAD8EPgQ6BDAENwQwBEIENQQ7BE8EIAA0BD4EOwQzBD4EMgQ+BDkEIAA9BDAEMwRABEMENwQ6BDgEAPMIAAAD7ggAAB8EQAQ1BDIESwRIBDUEPQQ4BDUEIAAyBCAAPgRCBD0EPgRIBDUEPQQ4BDgEIABDBEcEMARBBEIEPQQ4BDoEPgQyBCAAEwRABEMEPwQ/BEsELAAgAEMEOgQwBDcEMAQ9BD0EPgQ5BCAAMgQgAB8ENQRABDUERwQ9BDUEIAAxACAAHwRABDgEOwQ+BDYENQQ9BDgETwQgAKsAIQQ+BEEEQgQwBDIEIAATBEAEQwQ/BD8ESwS7ACAAOgQgABQEPgQzBD4EMgQ+BEAEQwQsACAAQQQ+BD4EQgQ9BD4ESAQ1BD0EOARPBCAAPwQ+BDoEMAQ3BDAEQgQ1BDsENQQ5BCAAFAQ+BDsEMwQvAEUAQgBJAFQARABBACwAIABDBEEEQgQwBD0EMAQyBDsEOAQyBDAENQQ8BD4EMwQ+BCAAPQQwBCAAOgQwBDYENARDBE4EIAA+BEIERwQ1BEIEPQRDBE4EIAA0BDAEQgRDBCAAKAA/BD4EIAAgBCEEEQQjBCkALAAgAEMEQAQ+BDIEPQRPBDoACgBBBCAAMQQ7BDgENgQwBDkESAQ1BDkEIAA+BEIERwQ1BEIEPQQ+BDkEIAA0BDAEQgRLBCAAKAA/BD4EIAAgBCEEEQQjBCkALAAgAEEEOwQ1BDQEQwROBEkENQQ5BCAANwQwBCAANAQwBEIEPgQ5BCAANwQwBDoEOwROBEcENQQ9BDgETwQgABQEPgQzBD4EMgQ+BEAEMAQsACAAEyAgADEEPgQ7BDUENQQgADMALAA1ACAAKAAiBEAENQRFBCAARgQ1BDsESwRFBCAAPwRPBEIEOAQgADQENQRBBE8EQgRLBEUEKQAgACgAMgQ6BDsETgRHBDgEQgQ1BDsETAQ9BD4EKQA7AAoAOAQ7BDgEIABBBD0EOAQ2BDUEPQQ4BDUEIABBBD4EPgRCBD0EPgRIBDUEPQQ4BE8EIAA/BD4EOgQwBDcEMARCBDUEOwQ1BDkEIAAUBD4EOwQzBC8ARQBCAEkAVABEAEEAIAA0BD4EIAA+BEIEQAQ4BEYEMARCBDUEOwRMBD0EPgQzBD4EIAA3BD0EMARHBDUEPQQ4BE8ELgAKABIEIABABDAEQQRHBDUEQgQgABQEPgQ7BDMEMAQgADIEOgQ7BE4ERwQwBE4EQgRBBE8EIAAwBDMENQQ9BEIEQQQ6BDgEOQQgAEQEMAQ6BEIEPgRABDgEPQQzBC4ACgASBCAAQAQwBEEERwQ1BEIEIAAUBD4EOwQzBDAEIAA9BDUEIAAyBDoEOwROBEcEMAROBEIEQQRPBCAAPwRABDUENAQ+BEEEQgQwBDIEOwQ1BD0EPQRLBDUEIABDBEcEMARBBEIEPQQ4BDoEQwQoADAEPAQpACAAEwRABEMEPwQ/BEsELAAgAEMEOgQwBDcEMAQ9BD0EPgQ5BCAAMgQgAB8ENQRABDUERwQ9BDUEIAAxACAAHwRABDgEOwQ+BDYENQQ9BDgETwQgAKsAIQQ+BEEEQgQwBDIEIAATBEAEQwQ/BD8ESwS7ACAAOgQgABQEPgQzBD4EMgQ+BEAEQwQsACAANwQwBDkEPARLBCwAIAA6BEAENQQ0BDgEQgRLBCAAOAQgADgEPQRLBDUEIAA0BDUEPQQ1BDYEPQRLBDUEIAA+BDEETwQ3BDAEQgQ1BDsETARBBEIEMgQwBCwAIABBBEMEMQQ+BEAENAQ4BD0EOARABD4EMgQwBD0EPQRLBDUEIABBBDsENQQ0BEMETgRJBDgEPAQoADgEPAQ4BCkAIABBBD8EPgRBBD4EMQQ+BDwEKAAwBDwEOAQpADoACgAxACkAIAA3BDAEOQQ8BEsELAAgADoEPgQ9BDIENQRABEIEOARABD4EMgQwBD0EPQRLBDUEIAAyBCAAMgQ1BDoEQQQ1BDsETwQgACgAPwRDBEIENQQ8BCAAMgRLBD8EQwRBBDoEMAQgAD8EQAQ+BEEEQgRLBEUEIAAyBDUEOgRBBDUEOwQ1BDkELAAgAD8EMARABDAEPAQ1BEIEQARLBCAAOgQ+BEIEPgRABEsERQQgAEEEPgQzBDsEMARBBD4EMgQwBD0ESwQgAEEEIAARBDAEPQQ6BD4EPAQpACwAIAA4BCAAPgREBD4EQAQ8BDsENQQ9BDgENQQgADcEMAQ7BD4EMwQwBCAANAQwBD0EPQRLBEUEIAAyBDUEOgRBBDUEOwQ1BDkEIAAyBCAAPwQ+BDsETAQ3BEMEIAARBDAEPQQ6BDAEIABBBCAAPwQ1BEAENQQ0BDAERwQ1BDkEIAARBDAEPQQ6BEMELgAKADIAKQAgADQENQQ9BDUENgQ9BEsENQQgAD4EMQRPBDcEMARCBDUEOwRMBEEEQgQyBDAEIABDBEcEMARBBEIEPQQ4BDoEPgQyBCAAEwRABEMEPwQ/BEsELAAgADIEIAA+BEIEPQQ+BEgENQQ9BDgEOAQgADoEPgRCBD4EQARLBEUEIAA8BDUENgQ0BEMEIABBBD4EPgRCBDIENQRCBEEEQgQyBEMETgRJBDgEPAQgAEMERwQwBEEEQgQ9BDgEOgQ+BDwEIAATBEAEQwQ/BD8ESwQsACAAEQQwBD0EOgQ+BDwEIAA4BCAANARABEMEMwQ4BDwEOAQgADoEQAQ1BDQEOARCBD4EQAQwBDwEOAQgADcEMAQ6BDsETgRHBDUEPQQ+BCgASwQpACAAQQQ+BDMEOwQwBEgENQQ9BDgENQQoADgETwQpACAAOgRABDUENAQ4BEIEPgRABD4EMgQgAD4EIAA/BD4EQARPBDQEOgQ1BCAAQwQ0BD4EMgQ7BDUEQgQyBD4EQAQ1BD0EOARPBCAAOARFBCAAQgRABDUEMQQ+BDIEMAQ9BDgEOQQgADoEIABBBD4EPgRCBDIENQRCBEEEQgQyBEMETgRJBDUEPARDBCAAQwRHBDAEQQRCBD0EOAQ6BEMEIAATBEAEQwQ/BD8ESwQgAD0EMAQgAEMEQQQ7BD4EMgQ4BE8ERQQsACAAQQQ+BDMEOwQwBEEEPgQyBDAEPQQ9BEsERQQgAEEEIAARBDAEPQQ6BD4EPAQuAAArAAAAAyYAAAAUBD4EOwQzBCAALwAgAEUAQgBJAFQARABBACAAPwQ+BCAAEwQaBAAJAAAAAwQAAAA8AD0AAGEDAAADXAMAAB8EQAQ1BDIESwRIBDUEPQQ4BDUEIAAyBCAAPgRCBD0EPgRIBDUEPQQ4BDgEIAAaBDsEOAQ1BD0EQgQwBCAAQQQ+BD4EQgQ9BD4ESAQ1BD0EOARPBCAAPwQ+BDoEMAQ3BDAEQgQ1BDsENQQ5BCAAFAQ+BDsEMwQvAEUAQgBJAFQARABBACwAIABDBEEEQgQwBD0EMAQyBDsEOAQyBDAENQQ8BD4EMwQ+BCAAPQQwBCAAOgQwBDYENARDBE4EIAA+BEIERwQ1BEIEPQRDBE4EIAA0BDAEQgRDBCAAKAA/BD4EIAAgBCEEEQQjBCkALAAgAEMEQAQ+BDIEPQRPBDoACgBBBCAAMQQ7BDgENgQwBDkESAQ1BDkEIAA+BEIERwQ1BEIEPQQ+BDkEIAA0BDAEQgRLBCAAKAA/BD4EIAAgBCEEEQQjBCkALAAgAEEEOwQ1BDQEQwROBEkENQQ5BCAANwQwBCAANAQwBEIEPgQ5BCAANwQwBDoEOwROBEcENQQ9BDgETwQgABQEPgQzBD4EMgQ+BEAEMAQsACAAEyAgADEEPgQ7BDUENQQgADQALAA1ACAAKAAnBDUEQgRLBEAENQRFBCAARgQ1BDsESwRFBCAAPwRPBEIEOAQgADQENQRBBE8EQgRLBEUEKQAgACgAMgQ6BDsETgRHBDgEQgQ1BDsETAQ9BD4EKQA7AAoAOAQ7BDgEIABBBD0EOAQ2BDUEPQQ4BDUEIABBBD4EPgRCBD0EPgRIBDUEPQQ4BE8EIAA/BD4EOgQwBDcEMARCBDUEOwQ1BDkEIAAUBD4EOwQzBC8ARQBCAEkAVABEAEEAIAA0BD4EIAA+BEIEQAQ4BEYEMARCBDUEOwRMBD0EPgQzBD4EIAA3BD0EMARHBDUEPQQ4BE8ELgAKABIEIABABDAEQQRHBDUEQgQgABQEPgQ7BDMEMAQgAD0ENQQgADIEOgQ7BE4ERwQwBE4EQgRBBE8EIAA+BDEETwQ3BDAEQgQ1BDsETARBBEIEMgQwBCAAPwQ1BEAENQQ0BCAAQQQ7BDUENARDBE4ESQQ4BDwEOAQgADsEOARGBDAEPAQ4BDoAIAAoBBgEFAQeBBIEIAAXBBAEIwQgBCAAHAQjBCUEEAQcBBUEFAQeBBIEGAQnBC4AAB8AAAADGgAAABQEPgQ7BDMEIAAvACAARQBCAEkAVABEAEEAAH8CAAADegIAAB8EQAQ1BDIESwRIBDUEPQQ4BDUEIAAyBCAAPgRCBD0EPgRIBDUEPQQ4BDgEIAAaBDsEOAQ1BD0EQgQwBCAAQQQ+BD4EQgQ9BD4ESAQ1BD0EOARPBCAAPwQ+BDoEMAQ3BDAEQgQ1BDsENQQ5BCAAFAQ+BDsEMwQvAEUAQgBJAFQARABBACwAIABDBEEEQgQwBD0EMAQyBDsEOAQyBDAENQQ8BD4EMwQ+BCAAPQQwBCAAOgQwBDYENARDBE4EIAA+BEIERwQ1BEIEPQRDBE4EIAA0BDAEQgRDBCAAKAA/BD4EIAAgBCEEEQQjBCkALAAgAEMEQAQ+BDIEPQRPBDoACgBBBCAAMQQ7BDgENgQwBDkESAQ1BDkEIAA+BEIERwQ1BEIEPQQ+BDkEIAA0BDAEQgRLBCAAKAA/BD4EIAAgBCEEEQQjBCkALAAgAEEEOwQ1BDQEQwROBEkENQQ5BCAANwQwBCAANAQwBEIEPgQ5BCAANwQwBDoEOwROBEcENQQ9BDgETwQgABQEPgQzBD4EMgQ+BEAEMAQsACAAEyAgADEEPgQ7BDUENQQgADQAIAAoACcENQRCBEsEQAQ1BEUEKQAgACgAMgQ6BDsETgRHBDgEQgQ1BDsETAQ9BD4EKQA7AAoAOAQ7BDgEIABBBD0EOAQ2BDUEPQQ4BDUEIABBBD4EPgRCBD0EPgRIBDUEPQQ4BE8EIAA/BD4EOgQwBDcEMARCBDUEOwQ1BDkEIAAUBD4EOwQzBC8ARQBCAEkAVABEAEEAIAA0BD4EIAA+BEIEQAQ4BEYEMARCBDUEOwRMBD0EPgQzBD4EIAA3BD0EMARHBDUEPQQ4BE8ELgAADwMAAAMKAwAAHwRABDUEMgRLBEgENQQ9BDgENQQgADIEIAA+BEIEPQQ+BEgENQQ9BDgEOAQgAEMERwQwBEEEQgQ9BDgEOgQ+BDIEIAATBEAEQwQ/BD8ESwQsACAAQwQ6BDAENwQwBD0EPQQ+BDkEIAAyBCAAHwQ1BEAENQRHBD0ENQQgADEAIAAfBEAEOAQ7BD4ENgQ1BD0EOARPBCAAqwAhBD4EQQRCBDAEMgQgABMEQARDBD8EPwRLBLsAIAA6BCAAFAQ+BDMEPgQyBD4EQARDBCwAIABBBD4EPgRCBD0EPgRIBDUEPQQ4BE8EIAA/BD4EOgQwBDcEMARCBDUEOwQ1BDkEIAAUBD4EOwQzBC8ARQBCAEkAVABEAEEALAAgAEMEQQRCBDAEPQQwBDIEOwQ4BDIEMAQ1BDwEPgQzBD4EIAA9BDAEIAA6BDAENgQ0BEMETgQgAD4EQgRHBDUEQgQ9BEMETgQgADQEMARCBEMEIAAoAD8EPgQgACAEIQQRBCMEKQAsACAAQwRABD4EMgQ9BE8EOgAKAEEEIAAxBDsEOAQ2BDAEOQRIBDUEOQQgAD4EQgRHBDUEQgQ9BD4EOQQgADQEMARCBEsEIAAoAD8EPgQgACAEIQQRBCMEKQAsACAAQQQ7BDUENARDBE4ESQQ1BDkEIAA3BDAEIAA0BDAEQgQ+BDkEIAA3BDAEOgQ7BE4ERwQ1BD0EOARPBCAAFAQ+BDMEPgQyBD4EQAQwBCwAIAATICAAMQQ+BDsENQQ1BCAANAAgACgAJwQ1BEIESwRABDUERQQpACAAKAAyBDoEOwROBEcEOARCBDUEOwRMBD0EPgQpADsACgA4BDsEOAQgAEEEPQQ4BDYENQQ9BDgENQQgAEEEPgQ+BEIEPQQ+BEgENQQ9BDgETwQgAD8EPgQ6BDAENwQwBEIENQQ7BDUEOQQgABQEPgQ7BDMELwBFAEIASQBUAEQAQQAgADQEPgQgAD4EQgRABDgERgQwBEIENQQ7BEwEPQQ+BDMEPgQgADcEPQQwBEcENQQ9BDgETwQuAADxBgAAA+wGAAAfBEAENQQyBEsESAQ1BD0EOAQ1BCAAMgQgAD4EQgQ9BD4ESAQ1BD0EOAQ4BCAAGgQ7BDgENQQ9BEIEMAQgAEEEPgQ+BEIEPQQ+BEgENQQ9BDgETwQgAD8EPgQ6BDAENwQwBEIENQQ7BDUEOQQgABQEPgQ7BDMELwBFAEIASQBUAEQAQQAsACAAQwRBBEIEMAQ9BDAEMgQ7BDgEMgQwBDUEPAQ+BDMEPgQgAD0EMAQgADoEMAQ2BDQEQwROBCAAPgRCBEcENQRCBD0EQwROBCAANAQwBEIEQwQgACgAPwQ+BCAAIAQhBBEEIwQpACwAIABDBEAEPgQyBD0ETwQ6AAoAQQQgADEEOwQ4BDYEMAQ5BEgENQQ5BCAAPgRCBEcENQRCBD0EPgQ5BCAANAQwBEIESwQgACgAPwQ+BCAAIAQhBBEEIwQpACwAIABBBDsENQQ0BEMETgRJBDUEOQQgADcEMAQgADQEMARCBD4EOQQgADcEMAQ6BDsETgRHBDUEPQQ4BE8EIAAUBD4EMwQ+BDIEPgRABDAELAAgABMgIAAxBD4EOwQ1BDUEIAAyACwANQAgACgAFAQyBEMERQQgAEYENQQ7BEsERQQgAD8ETwRCBDgEIAA0BDUEQQRPBEIESwRFBCkAIAAoADIEOgQ7BE4ERwQ4BEIENQQ7BEwEPQQ+BCkAOwAKADgEOwQ4BCAAQQQ9BDgENgQ1BD0EOAQ1BCAAQQQ+BD4EQgQ9BD4ESAQ1BD0EOARPBCAAPwQ+BDoEMAQ3BDAEQgQ1BDsENQQ5BCAAFAQ+BDsEMwQvAEUAQgBJAFQARABBACAANAQ+BCAAPgRCBEAEOARGBDAEQgQ1BDsETAQ9BD4EMwQ+BCAANwQ9BDAERwQ1BD0EOARPBC4ACgASBCAAQAQwBEEERwQ1BEIEIAAUBD4EOwQzBDAEIAA9BDUEIAAyBDoEOwROBEcEMAROBEIEQQRPBCAAPwRABDUENAQ+BEEEQgQwBDIEOwQ1BD0EPQRLBDUEIAAaBDsEOAQ1BD0EQgRDBCAANwQwBDkEPARLBCwAIAA6BEAENQQ0BDgEQgRLBCAAOAQgADgEPQRLBDUEIAA0BDUEPQQ1BDYEPQRLBDUEIAA+BDEETwQ3BDAEQgQ1BDsETARBBEIEMgQwBCwAIABBBEMEMQQ+BEAENAQ4BD0EOARABD4EMgQwBD0EPQRLBDUEIABBBDsENQQ0BEMETgRJBDgEPAQoADgEPAQ4BCkAIABBBD8EPgRBBD4EMQQ+BDwEKAAwBDwEOAQpADoACgAxACkAIAA3BDAEOQQ8BEsELAAgADoEPgQ9BDIENQRABEIEOARABD4EMgQwBD0EPQRLBDUEIAAyBCAAMgQ1BDoEQQQ1BDsETwQgACgAPwRDBEIENQQ8BCAAMgRLBD8EQwRBBDoEMAQgAD8EQAQ+BEEEQgRLBEUEIAAyBDUEOgRBBDUEOwQ1BDkELAAgAD8EMARABDAEPAQ1BEIEQARLBCAAOgQ+BEIEPgRABEsERQQgAEEEPgQzBDsEMARBBD4EMgQwBD0ESwQgAEEEIAARBDAEPQQ6BD4EPAQpACwAIAA4BCAAPgREBD4EQAQ8BDsENQQ9BDgENQQgADcEMAQ7BD4EMwQwBCAANAQwBD0EPQRLBEUEIAAyBDUEOgRBBDUEOwQ1BDkEIAAyBCAAPwQ+BDsETAQ3BEMEIAARBDAEPQQ6BDAEIABBBCAAPwQ1BEAENQQ0BDAERwQ1BDkEIAARBDAEPQQ6BEMELgAKADIAKQAgADQENQQ9BDUENgQ9BEsENQQgAD4EMQRPBDcEMARCBDUEOwRMBEEEQgQyBDAEIAAaBDsEOAQ1BD0EQgQwBCwAIAAyBCAAPgRCBD0EPgRIBDUEPQQ4BDgEIAA6BD4EQgQ+BEAESwRFBCAAPAQ1BDYENARDBCAAGgQ7BDgENQQ9BEIEPgQ8BCwAIAARBDAEPQQ6BD4EPAQgADgEIAA4BD0ESwQ8BDgEIAA6BEAENQQ0BDgEQgQ+BEAEMAQ8BDgEIAA3BDAEOgQ7BE4ERwQ1BD0EPgQoAEsEKQAgAEEEPgQzBDsEMARIBDUEPQQ4BDUEKAA4BE8EKQAgADoEQAQ1BDQEOARCBD4EQAQ+BDIEIAA+BCAAPwQ+BEAETwQ0BDoENQQgAEMENAQ+BDIEOwQ1BEIEMgQ+BEAENQQ9BDgETwQgADgERQQgAEIEQAQ1BDEEPgQyBDAEPQQ4BDkEIAA6BCAAGgQ7BDgENQQ9BEIEQwQgAD0EMAQgAEMEQQQ7BD4EMgQ4BE8ERQQsACAAQQQ+BDMEOwQwBEEEPgQyBDAEPQQ9BEsERQQgAEEEIAARBDAEPQQ6BD4EPAQuAAB5AgAAA3QCAAAfBEAENQQyBEsESAQ1BD0EOAQ1BCAAMgQgAD4EQgQ9BD4ESAQ1BD0EOAQ4BCAAGgQ7BDgENQQ9BEIEMAQgAEEEPgQ+BEIEPQQ+BEgENQQ9BDgETwQgAD8EPgQ6BDAENwQwBEIENQQ7BDUEOQQgABQEPgQ7BDMELwBFAEIASQBUAEQAQQAsACAAQwRBBEIEMAQ9BDAEMgQ7BDgEMgQwBDUEPAQ+BDMEPgQgAD0EMAQgADoEMAQ2BDQEQwROBCAAPgRCBEcENQRCBD0EQwROBCAANAQwBEIEQwQgACgAPwQ+BCAAIAQhBBEEIwQpACwAIABDBEAEPgQyBD0ETwQ6AAoAQQQgADEEOwQ4BDYEMAQ5BEgENQQ5BCAAPgRCBEcENQRCBD0EPgQ5BCAANAQwBEIESwQgACgAPwQ+BCAAIAQhBBEEIwQpACwAIABBBDsENQQ0BEMETgRJBDUEOQQgADcEMAQgADQEMARCBD4EOQQgADcEMAQ6BDsETgRHBDUEPQQ4BE8EIAAUBD4EMwQ+BDIEPgRABDAELAAgABMgIAAxBD4EOwQ1BDUEIAAzACAAKAAiBEAENQRFBCkAIAAoADIEOgQ7BE4ERwQ4BEIENQQ7BEwEPQQ+BCkAOwAKADgEOwQ4BCAAQQQ9BDgENgQ1BD0EOAQ1BCAAQQQ+BD4EQgQ9BD4ESAQ1BD0EOARPBCAAPwQ+BDoEMAQ3BDAEQgQ1BDsENQQ5BCAAFAQ+BDsEMwQvAEUAQgBJAFQARABBACAANAQ+BCAAPgRCBEAEOARGBDAEQgQ1BDsETAQ9BD4EMwQ+BCAANwQ9BDAERwQ1BD0EOARPBC4AABcAAAADEgAAAFMARgBfADEALgAxAF8AVgAyAACVAgAAA5ACAAAfBEAENQQyBEsESAQ1BD0EOAQ1BCAAMgQgAD4EQgQ9BD4ESAQ1BD0EOAQ4BCAAGgQ7BDgENQQ9BEIEMAQgAEEEPgQ+BEIEPQQ+BEgENQQ9BDgETwQgAD8EPgQ6BDAENwQwBEIENQQ7BDUEOQQgACcEOARBBEIESwQ5BCAANAQ+BDsEMwQvAEUAQgBJAFQARABBACwAIABDBEEEQgQwBD0EMAQyBDsEOAQyBDAENQQ8BD4EMwQ+BCAAPQQwBCAAOgQwBDYENARDBE4EIAA+BEIERwQ1BEIEPQRDBE4EIAA0BDAEQgRDBCAAKAA/BD4EIAAgBCEEEQQjBCkALAAgAEMEQAQ+BDIEPQRPBDoACgBBBCAAMQQ7BDgENgQwBDkESAQ1BDkEIAA+BEIERwQ1BEIEPQQ+BDkEIAA0BDAEQgRLBCAAKAA/BD4EIAAgBCEEEQQjBCkALAAgAEEEOwQ1BDQEQwROBEkENQQ5BCAANwQwBCAANAQwBEIEPgQ5BCAANwQwBDoEOwROBEcENQQ9BDgETwQgABQEPgQzBD4EMgQ+BEAEMAQsACAAEyAgADEEPgQ7BDUENQQgADUAIAAoAB8ETwRCBDgEKQAgACgAMgQ6BDsETgRHBDgEQgQ1BDsETAQ9BD4EKQA7AAoAOAQ7BDgEIABBBD0EOAQ2BDUEPQQ4BDUEIABBBD4EPgRCBD0EPgRIBDUEPQQ4BE8EIAA/BD4EOgQwBDcEMARCBDUEOwQ1BDkEIAAnBDgEQQRCBEsEOQQgADQEPgQ7BDMELwBFAEIASQBUAEQAQQAgADQEPgQgAD4EQgRABDgERgQwBEIENQQ7BEwEPQQ+BDMEPgQgADcEPQQwBEcENQQ9BDgETwQuAAAtAAAAAygAAAAnBDgEQQRCBEsEOQQgADQEPgQ7BDMEIAAvACAARQBCAEkAVABEAEEAAE0EAAADSAQAAB8EQAQ1BDIESwRIBDUEPQQ4BDUEIAAyBCAAPgRCBD0EPgRIBDUEPQQ4BDgEIABDBEcEMARBBEIEPQQ4BDoEPgQyBCAAEwRABEMEPwQ/BEsELAAgAEMEOgQwBDcEMAQ9BD0EPgQ5BCAAMgQgAB8ENQRABDUERwQ9BDUEIAAxACAAHwRABDgEOwQ+BDYENQQ9BDgETwQgAKsAIQQ+BEEEQgQwBDIEIAATBEAEQwQ/BD8ESwS7ACAAOgQgABQEPgQzBD4EMgQ+BEAEQwQsACAAQQQ+BD4EQgQ9BD4ESAQ1BD0EOARPBCAAPwQ+BDoEMAQ3BDAEQgQ1BDsENQQ5BCAAJwQ4BEEEQgRLBDkEIAA0BD4EOwQzBC8ARQBCAEkAVABEAEEALAAgAEMEQQRCBDAEPQQwBDIEOwQ4BDIEMAQ1BDwEPgQzBD4EIAA9BDAEIAA6BDAENgQ0BEMETgQgAD4EQgRHBDUEQgQ9BEMETgQgADQEMARCBEMEIAA4BCAAPQQwBCAANAQwBEIEQwQgADIESwQ0BDAERwQ4BCAAOgRABDUENAQ4BEIEPQRLBEUEIABBBEAENQQ0BEEEQgQyBCAAKAA/BD4EIAAgBCEEEQQjBCkALAAgAEMEQAQ+BDIEPQRPBDoACgBBBCAAMQQ7BDgENgQwBDkESAQ1BDkEIAA+BEIERwQ1BEIEPQQ+BDkEIAA0BDAEQgRLBCAAKAA/BD4EIAAgBCEEEQQjBCkALAAgAEEEOwQ1BDQEQwROBEkENQQ5BCAANwQwBCAANAQwBEIEPgQ5BCAANwQwBDoEOwROBEcENQQ9BDgETwQgABQEPgQzBD4EMgQ+BEAEMAQsACAAOAQ7BDgEIABBBCAANAQwBEIESwQgAD8ENQRABDIEPgQ5BCAAMgRLBDQEMARHBDgEIAA6BEAENQQ0BDgEQgQwBCAAKAAyBDoEOwROBEcEOARCBDUEOwRMBD0EPgQpACAAKAAyBCAANwQwBDIEOARBBDgEPAQ+BEEEQgQ4BCAAPgRCBCAAQgQ+BDMEPgQsACAAOgQwBDoEPgQ1BCgAMARPBCkAIABBBD4EMQRLBEIEOAQ1BCAAKAA0BDAEQgQwBCkAIAA9BDAEQQRCBEMEPwQ4BEIEIABABDAEPQQ1BDUEKQAgABMgIAAxBD4EOwQ1BDUEIAA1ACAAKAAfBE8EQgQ4BCkAIAAoADIEOgQ7BE4ERwQ4BEIENQQ7BEwEPQQ+BCkAOwAKADgEOwQ4BCAAQQQ9BDgENgQ1BD0EOAQ1BCAAQQQ+BD4EQgQ9BD4ESAQ1BD0EOARPBCAAPwQ+BDoEMAQ3BDAEQgQ1BDsENQQ5BCAAJwQ4BEEEQgRLBDkEIAA0BD4EOwQzBC8ARQBCAEkAVABEAEEAIAA0BD4EIAA+BEIEQAQ4BEYEMARCBDUEOwRMBD0EPgQzBD4EIAA3BD0EMARHBDUEPQQ4BE8ELgAAOQAAAAM0AAAAJwQ4BEEEQgRLBDkEIAA0BD4EOwQzBCAALwAgAEUAQgBJAFQARABBACAAPwQ+BCAAEwQaBAAPAwAAAwoDAAAfBEAENQQyBEsESAQ1BD0EOAQ1BCAAMgQgAD4EQgQ9BD4ESAQ1BD0EOAQ4BCAAGgQ7BDgENQQ9BEIEMAQgAEEEPgQ+BEIEPQQ+BEgENQQ9BDgETwQgAD8EPgQ6BDAENwQwBEIENQQ7BDUEOQQgACcEOARBBEIESwQ5BCAANAQ+BDsEMwQvAEUAQgBJAFQARABBACwAIABDBEEEQgQwBD0EMAQyBDsEOAQyBDAENQQ8BD4EMwQ+BCAAPQQwBCAAOgQwBDYENARDBE4EIAA+BEIERwQ1BEIEPQRDBE4EIAA0BDAEQgRDBCAAKAA/BD4EIAAgBCEEEQQjBCkALAAgAEMEQAQ+BDIEPQRPBDoACgBBBCAAMQQ7BDgENgQwBDkESAQ1BDkEIAA+BEIERwQ1BEIEPQQ+BDkEIAA0BDAEQgRLBCAAKAA/BD4EIAAgBCEEEQQjBCkALAAgAEEEOwQ1BDQEQwROBEkENQQ5BCAANwQwBCAANAQwBEIEPgQ5BCAANwQwBDoEOwROBEcENQQ9BDgETwQgABQEPgQzBD4EMgQ+BEAEMAQsACAAEyAgADEEPgQ7BDUENQQgADQAIAAoACcENQRCBEsEQAQ1BEUEKQAgACgAMgQ6BDsETgRHBDgEQgQ1BDsETAQ9BD4EKQA7AAoAOAQ7BDgEIABBBD0EOAQ2BDUEPQQ4BDUEIABBBD4EPgRCBD0EPgRIBDUEPQQ4BE8EIAA/BD4EOgQwBDcEMARCBDUEOwQ1BDkEIAAnBDgEQQRCBEsEOQQgADQEPgQ7BDMELwBFAEIASQBUAEQAQQAgADQEPgQgAD4EQgRABDgERgQwBEIENQQ7BEwEPQQ+BDMEPgQgADcEPQQwBEcENQQ9BDgETwQuAAoAEgQgAEAEMARBBEcENQRCBCAAJwQ4BEEEQgQ+BDMEPgQgABQEPgQ7BDMEMAQgADIEOgQ7BE4ERwQwBE4EQgRBBE8EIAA9BDUEPwQ+BDoEQARLBEIESwQ1BCAAMAQ6BDoEQAQ1BDQEOARCBDgEMgRLBC4AABcAAAADEgAAAFMARgBfADEALgAxAF8AVgAzAACtAgAAA6gCAAAfBEAENQQyBEsESAQ1BD0EOAQ1BCAAMgQgAD4EQgQ9BD4ESAQ1BD0EOAQ4BCAAGgQ7BDgENQQ9BEIEMAQgAEEEPgQ+BEIEPQQ+BEgENQQ9BDgETwQgAD8EPgQ6BDAENwQwBEIENQQ7BDUEOQQgABQEPgQ7BDMELwASBEsEQARDBEcEOgQwBCwAIABDBEEEQgQwBD0EMAQyBDsEOAQyBDAENQQ8BD4EMwQ+BCAAPQQwBCAAOgQwBDYENARDBE4EIAA+BEIERwQ1BEIEPQRDBE4EIAA0BDAEQgRDBCAAKAA/BD4EIAAgBCEEEQQjBCkALAAgAEMEQAQ+BDIEPQRPBDoACgBBBCAAMQQ7BDgENgQwBDkESAQ1BDkEIAA+BEIERwQ1BEIEPQQ+BDkEIAA0BDAEQgRLBCAAKAA/BD4EIAAgBCEEEQQjBCkALAAgAEEEOwQ1BDQEQwROBEkENQQ5BCAANwQwBCAANAQwBEIEPgQ5BCAANwQwBDoEOwROBEcENQQ9BDgETwQgABQEPgQzBD4EMgQ+BEAEMAQsACAAEyAgADEEPgQ7BDUENQQgADAALAA0ACAAKAAdBD4EOwRPBCAARgQ1BDsESwRFBCAARwQ1BEIESwRABDUERQQgADQENQRBBE8EQgRLBEUEKQAgACgAMgQ6BDsETgRHBDgEQgQ1BDsETAQ9BD4EKQA7AAoAOAQ7BDgEIABBBD0EOAQ2BDUEPQQ4BDUEIABBBD4EPgRCBD0EPgRIBDUEPQQ4BE8EIAA/BD4EOgQwBDcEMARCBDUEOwQ1BDkEIAAUBD4EOwQzBC8AEgRLBEAEQwRHBDoEMAQgADQEPgQgAD4EQgRABDgERgQwBEIENQQ7BEwEPQQ+BDMEPgQgADcEPQQwBEcENQQ9BDgETwQuAAAhAAAAAxwAAAAUBD4EOwQzBCAALwAgABIESwRABEMERwQ6BDAEAHcDAAADcgMAAB8EQAQ1BDIESwRIBDUEPQQ4BDUEIAAyBCAAPgRCBD0EPgRIBDUEPQQ4BDgEIAAaBDsEOAQ1BD0EQgQwBCAAQQQ+BD4EQgQ9BD4ESAQ1BD0EOARPBCAAPwQ+BDoEMAQ3BDAEQgQ1BDsENQQ5BCAAFATQAL4AOwQzBC8AEgRLBEAEQwRHBDoEMAQsACAAQwRBBEIEMAQ9BDAEMgQ7BDgEMgQwBDUEPAQ+BDMEPgQgAD0EMAQgADoEMAQ2BDQEQwROBCAAPgRCBEcENQRCBD0EQwROBCAANAQwBEIEQwQgACgAPwQ+BCAAIAQhBBEEIwQpACwAIABDBEAEPgQyBD0ETwQ6AAoACgBBBCAAMQQ7BDgENgQwBDkESAQ1BDkEIAA+BEIERwQ1BEIEPQQ+BDkEIAA0BDAEQgRLBCAAKAA/BD4EIAAgBCEEEQQjBCkALAAgAEEEOwQ1BDQEQwROBEkENQQ5BCAANwQwBCAANAQwBEIEPgQ5BCAANwQwBDoEOwROBEcENQQ9BDgETwQgABQEPgQzBD4EMgQ+BEAEMAQsACAAEyAgADEEPgQ7BDUENQQgADAALAAyADUAIAAoAB0EPgQ7BE8EIABGBDUEOwRLBEUEIAA0BDIEMAQ0BEYEMARCBDgEIAA/BE8EQgQ4BCAAQQQ+BEIESwRFBCkAIAAoADIEOgQ7BE4ERwQ4BEIENQQ7BEwEPQQ+BCkAOwAKAAoAOAQ7BDgEIABBBD0EOAQ2BDUEPQQ4BDUEIABBBD4EPgRCBD0EPgRIBDUEPQQ4BE8EIAA/BD4EOgQwBDcEMARCBDUEOwQ1BDkEIAAUBD4EOwQzBC8AEgRLBEAEQwRHBDoEMAQgADQEPgQgAD4EQgRABDgERgQwBEIENQQ7BEwEPQQ+BDMEPgQgADcEPQQwBEcENQQ9BDgETwQuAAoACgASBCAAQAQwBEEERwQ1BEIEIAAUBD4EOwQzBDAEIAA9BDUEIAAyBDoEOwROBEcEMAROBEIEQQRPBCAAPgQxBE8ENwQwBEIENQQ7BEwEQQRCBDIEMAQgAD8ENQRABDUENAQgAEEEOwQ1BDQEQwROBEkEOAQ8BDgEIAA7BDgERgQwBDwEOAQ6ACAAKAQYBBQEHgQSBCAAFwQQBCMEIAQgABwEIwQlBBAEHAQVBBQEHgQSBBgEJwQuAAAXAAAAAxIAAABTAEYAXwAxAC4AMgBfAFYAMQAAUQAAAANMAAAAHgQzBEAEMAQ9BDgERwQ1BD0EOAQ1BCAAPgQxBEoENQQ8BDAEIAA/BEAENQQ0BEoETwQyBDsENQQ9BD0ESwRFBCAAOARBBDoEPgQyBABLAgAAA0YCAAAfBEAENQQ0BEoETwQyBDsENQQ9BDgENQQgADsETgQxBD4EPARDBCAAIwRHBDAEQQRCBD0EOAQ6BEMEIABBBDQENQQ7BDoEOAQgADgEQQQ6BDAEKAA+BDIEKQAgADgELwA4BDsEOAQgAD8EQAQ4BD0ETwRCBDgENQQgAEEEQwQ0BD4EPAQgADoEIAA/BEAEPgQ4BDcEMgQ+BDQEQQRCBDIEQwQgADgEQQQ6BD4EMgQ+BDMEPgQoAEsERQQpACAANwQwBE8EMgQ7BDUEPQQ4BE8EKAA4BDkEKQAgAD4EMQQgAEMEPwQ7BDAEQgQ1BCAANAQ1BD0ENQQ2BD0EPgQ5BCAAQQRDBDwEPARLBCAAOAQvADgEOwQ4BCAAPgQxBCAAOARBBEIEQAQ1BDEEPgQyBDAEPQQ4BDgEIAA4BDwEQwRJBDUEQQRCBDIEMAQgAD0EMAQgAEEEPgQyBD4EOgRDBD8EPQRDBE4EIABBBEMEPAQ8BEMELAAgAD8EQAQ1BDIESwRIBDAETgRJBEMETgQgADEAMAAgADAAMAAwACAAMAAwADAAIAAoABQENQRBBE8EQgRMBCAAPAQ4BDsEOwQ4BD4EPQQ+BDIEKQAgAEAEQwQxBDsENQQ5BCAAMgQgAD4EQgQ9BD4ESAQ1BD0EOAQ4BCAAOwROBDEEPgQzBD4EIAA4BDcEIABDBDoEMAQ3BDAEPQQ9BEsERQQgADIEIAA9BDAEQQRCBD4ETwRJBDUEPAQgAD8EQwQ9BDoEQgQ1BCAAOwQ4BEYELgAABwAAAAMCAAAAPAAAEQAAAAMMAAAAQARDBDEEOwQ1BDkEABcAAAADEgAAAFMARgBfADEALgAyAF8AVgAyAADxAgAAA+wCAAAfBEAENQQ0BEoETwQyBDsENQQ9BDgENQQgADgEQQQ6BDAEKAA+BDIEKQAgADgELwA4BDsEOAQgAD8EQAQ4BD0ETwRCBDgENQQgAEEEQwQ0BD4EPAQgADoEIAA/BEAEPgQ4BDcEMgQ+BDQEQQRCBDIEQwQgADgEQQQ6BD4EMgQ+BDMEPgQoAEsERQQpACAANwQwBE8EMgQ7BDUEPQQ4BE8EKAA4BDkEKQAgAD4EMQQgAEMEPwQ7BDAEQgQ1BCAANAQ1BD0ENQQ2BD0EPgQ5BCAAQQRDBDwEPARLBCAAOAQvADgEOwQ4BCAAPgQxBCAAOARBBEIEQAQ1BDEEPgQyBDAEPQQ4BDgEIAA4BDwEQwRJBDUEQQRCBDIEMAQ6AAoAEyAgAD8EQAQ4BDwENQQ9BDgEQgQ1BDsETAQ9BD4EIAA6BCAAGgQ7BDgENQQ9BEIEQwQgADIEIABBBD4EMgQ+BDoEQwQ/BD0EPgQ8BCAAQAQwBDcEPAQ1BEAENQQsACAAPwRABDUEMgRLBEgEMAROBEkENQQ8BCAAMQAwACAAMAAwADAAIAAwADAAMAAgACgAFAQ1BEEETwRCBEwEIAA8BDgEOwQ7BDgEPgQ9BD4EMgQpACAAQARDBDEEOwQ1BDkEOwAKABMgIAA/BEAEOAQ8BDUEPQQ4BEIENQQ7BEwEPQQ+BCAAOgQgAD8EPgRABEMERwQ4BEIENQQ7BE4EIAA4BC8AOAQ7BDgEIAA3BDAEOwQ+BDMEPgQ0BDAEQgQ1BDsETgQgADgELwA4BDsEOAQgADMEMARABDAEPQRCBEMEIAAyBCAAQQQ+BDIEPgQ6BEMEPwQ9BD4EPAQgAEAEMAQ3BDwENQRABDUELAAgAD8EQAQ1BDIESwRIBDAETgRJBDUEPAQgADEAMAAgADAAMAAwACAAMAAwADAAIAAoABQENQRBBE8EQgRMBCAAPAQ4BDsEOwQ4BD4EPQQ+BDIEKQAgAEAEQwQxBDsENQQ5BC4AABcAAAADEgAAAFMARgBfADEALgAyAF8AVgAzAACpAgAAA6QCAAAfBEAENQQ0BEoETwQyBDsENQQ9BDgENQQgADsETgQxBD4EPARDBCAAIwRHBDAEQQRCBD0EOAQ6BEMEIABBBDQENQQ7BDoEOAQgADgEQQQ6BDAEKAA+BDIEKQAgADgELwA4BDsEOAQgAD8EQAQ4BD0ETwRCBDgENQQgAEEEQwQ0BD4EPAQgADoEIAA/BEAEPgQ4BDcEMgQ+BDQEQQRCBDIEQwQgADgEQQQ6BD4EMgQ+BDMEPgQoAEsERQQpACAANwQwBE8EMgQ7BDUEPQQ4BE8EKAA4BDkEKQAgAD4EMQQgAEMEPwQ7BDAEQgQ1BCAANAQ1BD0ENQQ2BD0EPgQ5BCAAQQRDBDwEPARLBCAAOAQvADgEOwQ4BCAAPgQxBCAAOARBBEIEQAQ1BDEEPgQyBDAEPQQ4BDgEIAA4BDwEQwRJBDUEQQRCBDIEMAQgAD0EMAQgAEEEPgQyBD4EOgRDBD8EPQRDBE4EIABBBEMEPAQ8BEMEIAAyBCAAPgRCBD0EPgRIBDUEPQQ4BDgEIAA7BE4EMQQ+BDMEPgQgACMERwQwBEEEQgQ9BDgEOgQwBCAAQQQ0BDUEOwQ6BDgELAAgAD8EQAQ1BDIESwRIBDAETgRJBEMETgQgADEAMAAgACgAFAQ1BEEETwRCBEwEKQAgAD8EQAQ+BEYENQQ9BEIEPgQyBCAAPgRCBCAAPwQ+BDoEMAQ3BDAEQgQ1BDsETwQgAKsAEgQwBDsETgRCBDAEIAAxBDAEOwQwBD0EQQQwBLsAIAA/BD4EIABBBD4EQQRCBD4ETwQ9BDgETgQgAD0EMAQgAD8EPgRBBDsENQQ0BD0ETgROBCAAPgRCBEcENQRCBD0EQwROBCAANAQwBEIEQwQgACgAPwQ+BCAAIAQhBBEEIwQpAC4AAA0AAAADCAAAACUAIAASBBEEALECAAADrAIAAB8EQAQ1BDQESgRPBDIEOwQ1BD0EOAQ1BCAAOwROBDEEPgQ8BEMEIAAjBEcEMARBBEIEPQQ4BDoEQwQgAEEENAQ1BDsEOgQ4BCAAOARBBDoEMAQoAD4EMgQpACAAOAQvADgEOwQ4BCAAPwRABDgEPQRPBEIEOAQ1BCAAQQRDBDQEPgQ8BCAAOgQgAD8EQAQ+BDgENwQyBD4ENARBBEIEMgRDBCAAOARBBDoEPgQyBD4EMwQ+BCgASwRFBCkAIAA3BDAETwQyBDsENQQ9BDgETwQoADgEOQQpACAAPgQxBCAAQwQ/BDsEMARCBDUEIAA0BDUEPQQ1BDYEPQQ+BDkEIABBBEMEPAQ8BEsEIAA4BC8AOAQ7BDgEIAA+BDEEIAA4BEEEQgRABDUEMQQ+BDIEMAQ9BDgEOAQgADgEPARDBEkENQRBBEIEMgQwBCAAPQQwBCAAQQQ+BDIEPgQ6BEMEPwQ9BEMETgQgAEEEQwQ8BDwEQwQgADIEIAA+BEIEPQQ+BEgENQQ9BDgEOAQgADsETgQxBD4EMwQ+BCAAIwRHBDAEQQRCBD0EOAQ6BDAEIABBBDQENQQ7BDoEOAQsACAAPwRABDUEMgRLBEgEMAROBEkEQwROBCAAMQA1ACAAKAAfBE8EQgQ9BDAENARGBDAEQgRMBCkAIAA/BEAEPgRGBDUEPQRCBD4EMgQgAD4EQgQgAD8EPgQ6BDAENwQwBEIENQQ7BE8EIACrABIEMAQ7BE4EQgQwBCAAMQQwBDsEMAQ9BEEEMAS7ACAAPwQ+BCAAQQQ+BEEEQgQ+BE8EPQQ4BE4EIAA9BDAEIAA/BD4EQQQ7BDUENAQ9BE4ETgQgAD4EQgRHBDUEQgQ9BEMETgQgADQEMARCBEMEIAAoAD8EPgQgACAEIQQRBCMEKQAuAAChAgAAA5wCAAAfBEAENQQ0BEoETwQyBDsENQQ9BDgENQQgADsETgQxBD4EPARDBCAAIwRHBDAEQQRCBD0EOAQ6BEMEIABBBDQENQQ7BDoEOAQgADgEQQQ6BDAEKAA+BDIEKQAgADgELwA4BDsEOAQgAD8EQAQ4BD0ETwRCBDgENQQgAEEEQwQ0BD4EPAQgADoEIAA/BEAEPgQ4BDcEMgQ+BDQEQQRCBDIEQwQgADgEQQQ6BD4EMgQ+BDMEPgQoAEsERQQpACAANwQwBE8EMgQ7BDUEPQQ4BE8EKAA4BDkEKQAgAD4EMQQgAEMEPwQ7BDAEQgQ1BCAANAQ1BD0ENQQ2BD0EPgQ5BCAAQQRDBDwEPARLBCAAOAQvADgEOwQ4BCAAPgQxBCAAOARBBEIEQAQ1BDEEPgQyBDAEPQQ4BDgEIAA4BDwEQwRJBDUEQQRCBDIEMAQgAD0EMAQgAEEEPgQyBD4EOgRDBD8EPQRDBE4EIABBBEMEPAQ8BEMEIAAyBCAAPgRCBD0EPgRIBDUEPQQ4BDgEIAA7BE4EMQQ+BDMEPgQgACMERwQwBEEEQgQ9BDgEOgQwBCAAQQQ0BDUEOwQ6BDgELAAgAD8EQAQ1BDIESwRIBDAETgRJBEMETgQgADUAIAAoAB8ETwRCBEwEKQAgAD8EQAQ+BEYENQQ9BEIEPgQyBCAAPgRCBCAAPwQ+BDoEMAQ3BDAEQgQ1BDsETwQgAKsAJwQ4BEEEQgRLBDUEIAAwBDoEQgQ4BDIESwS7ACAAPwQ+BCAAQQQ+BEEEQgQ+BE8EPQQ4BE4EIAA9BDAEIAA/BD4EQQQ7BDUENAQ9BE4ETgQgAD4EQgRHBDUEQgQ9BEMETgQgADQEMARCBEMEIAAoAD8EPgQgACAEIQQRBCMEKQAuAAAlAAAAAyAAAAAlACAARwQ4BEEEQgRLBEUEIAAwBDoEQgQ4BDIEPgQyBACjAgAAA54CAAAfBEAENQQ0BEoETwQyBDsENQQ9BDgENQQgADsETgQxBD4EPARDBCAAIwRHBDAEQQRCBD0EOAQ6BEMEIABBBDQENQQ7BDoEOAQgADgEQQQ6BDAEKAA+BDIEKQAgADgELwA4BDsEOAQgAD8EQAQ4BD0ETwRCBDgENQQgAEEEQwQ0BD4EPAQgADoEIAA/BEAEPgQ4BDcEMgQ+BDQEQQRCBDIEQwQgADgEQQQ6BD4EMgQ+BDMEPgQoAEsERQQpACAANwQwBE8EMgQ7BDUEPQQ4BE8EKAA4BDkEKQAgAD4EMQQgAEMEPwQ7BDAEQgQ1BCAANAQ1BD0ENQQ2BD0EPgQ5BCAAQQRDBDwEPARLBCAAOAQvADgEOwQ4BCAAPgQxBCAAOARBBEIEQAQ1BDEEPgQyBDAEPQQ4BDgEIAA4BDwEQwRJBDUEQQRCBDIEMAQgAD0EMAQgAEEEPgQyBD4EOgRDBD8EPQRDBE4EIABBBEMEPAQ8BEMEIAAyBCAAPgRCBD0EPgRIBDUEPQQ4BDgEIAA7BE4EMQQ+BDMEPgQgACMERwQwBEEEQgQ9BDgEOgQwBCAAQQQ0BDUEOwQ6BDgELAAgAD8EQAQ1BDIESwRIBDAETgRJBEMETgQgADUAIAAoAB8ETwRCBEwEKQAgAD8EQAQ+BEYENQQ9BEIEPgQyBCAAPgRCBCAAPwQ+BDoEMAQ3BDAEQgQ1BDsETwQgAKsAEgQwBDsETgRCBDAEIAAxBDAEOwQwBD0EQQQwBLsAIAA/BD4EIABBBD4EQQRCBD4ETwQ9BDgETgQgAD0EMAQgAD8EPgRBBDsENQQ0BD0ETgROBCAAPgRCBEcENQRCBD0EQwROBCAANAQwBEIEQwQgACgAPwQ+BCAAIAQhBBEEIwQpAC4AABcAAAADEgAAAFMARgBfADIALgAxAF8AVgAxAAC7AAAAA7YAAAAhBD4EMQQ7BE4ENAQ1BD0EOAQ1BCAAPwQ+BDoEMAQ3BDAEQgQ1BDsENQQ5BDoAIABFAEIASQBUAEQAQQAgAC8AIAA/BEAEPgRGBDUEPQRCBD0ESwQ1BCAAQAQwBEEERQQ+BDQESwQ7ACAATwBJAEIARABBACAAKABMAFQATQApACAALwAgAD8EQAQ+BEYENQQ9BEIEPQRLBDUEIABABDAEQQRFBD4ENARLBCAAKABMAFQATQApAAC1AgAAA7ACAAAhBD0EOAQ2BDUEPQQ4BDUEIAAyBCAAPgRCBD0EPgRIBDUEPQQ4BDgEIABDBEcEMARBBEIEPQQ4BDoEPgQyBCAAEwRABEMEPwQ/BEsELAAgAEMEOgQwBDcEMAQ9BD0EPgQ5BCAAMgQgAB8ENQRABDUERwQ9BDUEIAAxACAAHwRABDgEOwQ+BDYENQQ9BDgETwQgAKsAIQQ+BEEEQgQwBDIEIAATBEAEQwQ/BD8ESwS7ACAAOgQgABQEPgQzBD4EMgQ+BEAEQwQsACAAQQQ+BD4EQgQ9BD4ESAQ1BD0EOARPBCAAPwQ+BDoEMAQ3BDAEQgQ1BDsENQQ5BCAARQBCAEkAVABEAEEAIAAvACAAPwRABD4ERgQ1BD0EQgQ9BEsENQQgAEAEMARBBEUEPgQ0BEsELAAgAEMEQQRCBDAEPQQwBDIEOwQ4BDIEMAQ1BDwEPgQzBD4EIAA9BDAEIAA6BDAENgQ0BEMETgQgAD4EQgRHBDUEQgQ9BEMETgQgADQEMARCBEMEIAAoAD8EPgQgACAEIQQRBCMEKQAsACAAPQQ4BDYENQQgAEMEQAQ+BDIEPQRPBDoACgBBBCAAMQQ7BDgENgQwBDkESAQ1BDkEIAA+BEIERwQ1BEIEPQQ+BDkEIAA0BDAEQgRLBCAAKAA/BD4EIAAgBCEEEQQjBCkALAAgAEEEOwQ1BDQEQwROBEkENQQ5BCAANwQwBCAANAQwBEIEPgQ5BCAANwQwBDoEOwROBEcENQQ9BDgETwQgABQEPgQzBD4EMgQ+BEAEMAQsACAAEyAgADEALAA1ACAAKAAeBDQEPQQ+BDkEIABGBDUEOwQ+BDkEIAA/BE8EQgQ4BCAANAQ1BEEETwRCBEsERQQpACAAKAAyBDoEOwROBEcEOARCBDUEOwRMBD0EPgQpAC4AACEAAAADHAAAAEUAQgBJAFQARABBAC8AJQAgAD8EPgQgABMEGgQACQAAAAMEAAAAPgA9AADfAwAAA9oDAAAhBD0EOAQ2BDUEPQQ4BDUEIAAyBCAAPgRCBD0EPgRIBDUEPQQ4BDgEIAAaBDsEOAQ1BD0EQgQwBCAAQQQ+BD4EQgQ9BD4ESAQ1BD0EOARPBCAAPwQ+BDoEMAQ3BDAEQgQ1BDsENQQ5BCAARQBCAEkAVABEAEEAIAAvACAAPwRABD4ERgQ1BD0EQgQ9BEsENQQgAEAEMARBBEUEPgQ0BEsELAAgAEMEQQRCBDAEPQQwBDIEOwQ4BDIEMAQ1BDwEPgQzBD4EIAA9BDAEIAA6BDAENgQ0BEMETgQgAD4EQgRHBDUEQgQ9BEMETgQgADQEMARCBEMEIAAoAD8EPgQgACAEIQQRBCMEKQAsACAAPQQ4BDYENQQgAEMEQAQ+BDIEPQRPBDoAXABuAFwAdABBBCAAMQQ7BDgENgQwBDkESAQ1BDkEIAA+BEIERwQ1BEIEPQQ+BDkEIAA0BDAEQgRLBCAAKAA/BD4EIAAgBCEEEQQjBCkALAAgAEEEOwQ1BDQEQwROBEkENQQ5BCAANwQwBCAANAQwBEIEPgQ5BCAANwQwBDoEOwROBEcENQQ9BDgETwQgABQEPgQzBD4EMgQ+BEAEMAQsACAAEyAgADEALAAxACAAKAAeBDQEPQQ+BDkEIABGBDUEOwQ+BDkEIAA+BDQEPQQ+BDkEIAA0BDUEQQRPBEIESwRFBCkAIAAoADIEOgQ7BE4ERwQ4BEIENQQ7BEwEPQQ+BCkAOwBcAG4AXAB0AEEEIAAzADAAIAA4BE4EPQRPBCAAMgAwADIANQAgADMELgAgABMgIAAxACwAMwAgACgAHgQ0BD0EPgQ5BCAARgQ1BDsEPgQ5BCAAQgRABDUERQQgADQENQRBBE8EQgRLBEUEKQAgACgAMgQ6BDsETgRHBDgEQgQ1BDsETAQ9BD4EKQA7AFwAbgBcAHQAQQQgADMAMAAgADAEPwRABDUEOwRPBCAAMgAwADIANgAgADMELgAgABMgIAAxACwANQAgACgAHgQ0BD0EPgQ5BCAARgQ1BDsEPgQ5BCAAPwRPBEIEOAQgADQENQRBBE8EQgRLBEUEKQAgACgAMgQ6BDsETgRHBDgEQgQ1BDsETAQ9BD4EKQA7AFwAbgBcAHQAQQQgADMAMAAgAEEENQQ9BEIETwQxBEAETwQgADIAMAAyADYAIAAzBC4AIAATICAAMQAsADYAIAAoAB4ENAQ9BD4EOQQgAEYENQQ7BD4EOQQgAEgENQRBBEIEOAQgADQENQRBBE8EQgRLBEUEKQAgACgAMgQ6BDsETgRHBDgEQgQ1BDsETAQ9BD4EKQAuAAAVAAAAAxAAAABFAEIASQBUAEQAQQAvACUAABMAAAADDgAAADEALAAxAC0AMQAsADYAALUCAAADsAIAACEEPQQ4BDYENQQ9BDgENQQgADIEIAA+BEIEPQQ+BEgENQQ9BDgEOAQgAEMERwQwBEEEQgQ9BDgEOgQ+BDIEIAATBEAEQwQ/BD8ESwQsACAAQwQ6BDAENwQwBD0EPQQ+BDkEIAAyBCAAHwQ1BEAENQRHBD0ENQQgADEAIAAfBEAEOAQ7BD4ENgQ1BD0EOARPBCAAqwAhBD4EQQRCBDAEMgQgABMEQARDBD8EPwRLBLsAIAA6BCAAFAQ+BDMEPgQyBD4EQARDBCwAIABBBD4EPgRCBD0EPgRIBDUEPQQ4BE8EIAA/BD4EOgQwBDcEMARCBDUEOwQ1BDkEIABFAEIASQBUAEQAQQAgAC8AIAA/BEAEPgRGBDUEPQRCBD0ESwQ1BCAAQAQwBEEERQQ+BDQESwQsACAAQwRBBEIEMAQ9BDAEMgQ7BDgEMgQwBDUEPAQ+BDMEPgQgAD0EMAQgADoEMAQ2BDQEQwROBCAAPgRCBEcENQRCBD0EQwROBCAANAQwBEIEQwQgACgAPwQ+BCAAIAQhBBEEIwQpACwAIAA9BDgENgQ1BCAAQwRABD4EMgQ9BE8EOgAKAEEEIAAxBDsEOAQ2BDAEOQRIBDUEOQQgAD4EQgRHBDUEQgQ9BD4EOQQgADQEMARCBEsEIAAoAD8EPgQgACAEIQQRBCMEKQAsACAAQQQ7BDUENARDBE4ESQQ1BDkEIAA3BDAEIAA0BDAEQgQ+BDkEIAA3BDAEOgQ7BE4ERwQ1BD0EOARPBCAAFAQ+BDMEPgQyBD4EQAQwBCwAIAATICAAMQAsADMAIAAoAB4ENAQ9BD4EOQQgAEYENQQ7BD4EOQQgAEIEQAQ1BEUEIAA0BDUEQQRPBEIESwRFBCkAIAAoADIEOgQ7BE4ERwQ4BEIENQQ7BEwEPQQ+BCkALgAAvQAAAAO4AAAAIQQ+BDEEOwROBDQENQQ9BDgENQQgAD8EPgQ6BDAENwQwBEIENQQ7BDUEOQQ6ACAARQBCAEkAVABEAEEAIAAvACAA0AC/AEAEPgRGBDUEPQRCBD0ESwQ1BCAAQAQwBEEERQQ+BDQESwQ7ACAATwBJAEIARABBACAAKABMAFQATQApACAALwAgAD8EQAQ+BEYENQQ9BEIEPQRLBDUEIABABDAEQQRFBD4ENARLBCAAKABMAFQATQApAAAlAgAAAyACAAAhBD0EOAQ2BDUEPQQ4BDUEIAAyBCAAPgRCBD0EPgRIBDUEPQQ4BDgEIAAaBDsEOAQ1BD0EQgQwBCAAQQQ+BD4EQgQ9BD4ESAQ1BD0EOARPBCAAPwQ+BDoEMAQ3BDAEQgQ1BDsENQQ5BCAARQBCAEkAVABEAEEAIAAvACAAPwRABD4ERgQ1BD0EQgQ9BEsENQQgAEAEMARBBEUEPgQ0BEsELAAgAEMEQQRCBDAEPQQwBDIEOwQ4BDIEMAQ1BDwEPgQzBD4EIAA9BDAEIAA6BDAENgQ0BEMETgQgAD4EQgRHBDUEQgQ9BEMETgQgADQEMARCBEMEIAAoAD8EPgQgACAEIQQRBCMEKQAsACAAPQQ4BDYENQQgAEMEQAQ+BDIEPQRPBDoACgBBBCAAMQQ7BDgENgQwBDkESAQ1BDkEIAA+BEIERwQ1BEIEPQQ+BDkEIAA0BDAEQgRLBCAAKAA/BD4EIAAgBCEEEQQjBCkALAAgAEEEOwQ1BDQEQwROBEkENQQ5BCAANwQwBCAANAQwBEIEPgQ5BCAANwQwBDoEOwROBEcENQQ9BDgETwQgABQEPgQzBD4EMgQ+BEAEMAQsACAAEyAgADEALAA1ACAAKAAeBDQEPQQ+BDkEIABGBDUEOwQ+BDkEIAA/BE8EQgQ4BCAANAQ1BEEETwRCBEsERQQpACAAKAAyBDoEOwROBEcEOARCBDUEOwRMBD0EPgQpAC4AABkAAAADFAAAAFMARgBfADIALgAxADAAXwBWADEAAIUAAAADgAAAAB4EMwRABDAEPQQ4BEcENQQ9BDgENQQgAD0EMAQgADIESwQ/BDsEMARCBEMEIAA0BDgEMgQ4BDQENQQ9BDQEPgQyBCAALwAgAEAEMARBBD8EQAQ1BDQENQQ7BDUEPQQ4BDUEIABHBDgEQQRCBD4EOQQgAD8EQAQ4BDEESwQ7BDgEAMsDAAADxgMAAB8EQAQ4BD0ETwRCBDgENQQgAEAENQRIBDUEPQQ4BDkEIAAaBDsEOAQ1BD0EQgQ+BDwEIAA+BCAAMgRLBD8EOwQwBEIENQQgADQEOAQyBDgENAQ1BD0ENAQ+BDIEIAAwBDoERgQ4BD4EPQQ1BEAEMAQ8BCAALwAgAEAEMARBBD8EQAQ1BDQENQQ7BDUEPQQ4BDgEIABHBDgEQQRCBD4EOQQgAD8EQAQ4BDEESwQ7BDgEIAA8BDUENgQ0BEMEIABDBEcEMARBBEIEPQQ4BDoEMAQ8BDgEIAA4BC8AOAQ7BDgEIABHBDsENQQ9BDAEPAQ4BCAAMQQ1BDcEIAA/BEAENQQ0BDIEMARABDgEQgQ1BDsETAQ9BD4EMwQ+BCAAPwQ4BEEETAQ8BDUEPQQ9BD4EMwQ+BCAAQQQ+BDMEOwQwBEEEPgQyBDAEPQQ4BE8EIABBBCAAEQQwBD0EOgQ+BDwELgAgABQEOwRPBCAAQAQwBEEEQQQ8BD4EQgRABDUEPQQ4BE8EIAARBDAEPQQ6BD4EPAQgADIEPgQ/BEAEPgRBBDAEIAA+BCAAQQQ+BDMEOwQwBEEEPgQyBDAEPQQ4BDgEIABABDUESAQ1BD0EOARPBCAAPgQgADIESwQ/BDsEMARCBDUEIAA0BDgEMgQ4BDQENQQ9BDQEPgQyBCAAEQQwBD0EOgRDBCAAPwRABDUENAQ+BEEEQgQwBDIEOwRPBDUEQgRBBE8EIAA8BD4ENAQ1BDsETAQgADQENQQ9BDUENgQ9BEsERQQgAD8EPgRCBD4EOgQ+BDIEIAAaBDsEOAQ1BD0EQgQwBCAAQQQgAD8EQAQ+BDMEPQQ+BDcEPgQ8BCAARAQ4BD0EMAQ9BEEEPgQyBEsERQQgAEAENQQ3BEMEOwRMBEIEMARCBD4EMgQsACAAQQQ+BEEEQgQwBDIEOwQ1BD0EPQRDBE4EIAA0BD4EIAA6BD4EPQRGBDAEIABBBEAEPgQ6BDAEIAA0BDUEOQRBBEIEMgQ4BE8EIAAyBEEENQRFBCAAPgQxBE8ENwQwBEIENQQ7BEwEQQRCBDIEIAA/BDUEQAQ1BDQEIAARBDAEPQQ6BD4EPAQsACAAMAQgAEIEMAQ6BDYENQQgAEMERwQ4BEIESwQyBDAETgRJBEMETgQgAEIENQQ6BEMESQQ4BDkEIAA6BDIEMARABEIEMAQ7BCAAOAQgADoEMgQwBEAEQgQwBDsELAAgAD8EQAQ1BDQESAQ1BEEEQgQyBEMETgRJBDgEOQQgAEIENQQ6BEMESQQ1BDwEQwQuAAAZAAAAAxQAAABTAEYAXwAyAC4AMQAxAF8AVgAxAACrAAAAA6YAAAAeBDMEQAQwBD0EOARHBDUEPQQ4BDUEIAA3BDAEOAQ8BEEEQgQyBD4EMgQwBD0EOAQ5BCAALwAgAD8EQAQ1BDQEPgRBBEIEMAQyBDsENQQ9BDgETwQgAD8EPgRABEMERwQ4BEIENQQ7BEwEQQRCBDIEIAA4BCAAMwQwBEAEMAQ9BEIEOAQ5BD0ESwRFBCAAPgQxBE8ENwQwBEIENQQ7BEwEQQRCBDIEAE8DAAADSgMAABcEMAQ6BDsETgRHBDUEPQQ4BDUEIABDBEcEMARBBEIEPQQ4BDoEMAQ8BDgEIAATBEAEQwQ/BD8ESwQsACAAQwQ6BDAENwQwBD0EPQQ+BDkEIAAyBCAAHwQ1BEAENQRHBD0ENQQgADEAIAAfBEAEOAQ7BD4ENgQ1BD0EOARPBCAAqwAhBD4EQQRCBDAEMgQgABMEQARDBD8EPwRLBLsAIAA6BCAAFAQ+BDMEPgQyBD4EQARDBCAAQQQ0BDUEOwQ6BDgEKAA+BDoEKQAgADgELwA4BDsEOAQgAD0ENQRBBDoEPgQ7BEwEOgQ4BEUEIAAyBDcEMAQ4BDwEPgRBBDIETwQ3BDAEPQQ9BEsERQQgAEEENAQ1BDsEPgQ6BCwAIAA3BDAEOgQ7BE4ERwQ1BD0EOAQ1BCAAOgQ+BEIEPgRABD4EOQQoAEsERQQpACAAPwRABDgEMgQ+BDQEOARCBCAAOAQvADgEOwQ4BCAAPAQ+BDYENQRCBCAAPwRABDgEMgQ1BEEEQgQ4BCAAOgQgAD8EQAQ1BDIESwRIBDUEPQQ4BE4EIAAeBDEESQQ1BDMEPgQgAEAEMAQ3BDwENQRABDAEIAA/BEAEOAQyBDsENQRHBDUEPQQ9BEsERQQgAD4EQgQgAEIEQAQ1BEIETAQ4BEUEIAA7BDgERgQgADcEMAQ4BDwEQQRCBDIEPgQyBDAEPQQ4BDkEIABBBEMEPAQ8BEsEIABBBDIESwRIBDUEIAAzACAAMAAwADAAIAAwADAAMAAgADAAMAAwACAAKAAiBEAENQRFBCAAPAQ4BDsEOwQ4BDAEQAQ0BD4EMgQpACAAQARDBDEEOwQ1BDkEIAAoADIEOgQ7BE4ERwQ4BEIENQQ7BEwEPQQ+BCkALAAgAD0EMARHBDgEPQQwBE8EIABBBCAAPwQ+BEEEOwQ1BDQEPQQ1BDMEPgQgADoEMAQ7BDUEPQQ0BDAEQAQ9BD4EMwQ+BCAANAQ9BE8EIAA6BDAEOwQ1BD0ENAQwBEAEPQQ+BDMEPgQgADoEMgQwBEAEQgQwBDsEMAQsACAAMgQgADoEPgRCBD4EQAQ+BDwEIAA3BDAEOgQ7BE4ERwQ1BD0EIAAUBD4EMwQ+BDIEPgRABC4AAEsAAAADRgAAABcEMAQ/BEAENQRCBCAAPQQwBCAAPwRABDgEMgQ7BDUERwQ1BD0EOAQ1BCAANwQwBDgEPARBBEIEMgQ+BDIEMAQ9BDgEOQQABwAAAAMCAAAAPgBjBAAAAC0AAAABKAAAAAADAAAAAQEKAQMAAAABAQoCAwAAAAEBCgQDAAAAAQEKBQMAAAABAQoEOwAAAAULAAAAAAYAAAACAQAAABEFCwAAAAAGAAAAAgEAAAAIBRYAAAAAEQAAAAIBAAAAEgMGAAAAAAQA//8ABq0AAAAHKgAAAAEGAwAAAAIBAQQGDgAAAEMAYQBsAGkAYgByAGkACQEBBgUAAAAAAAAmQActAAAAAAEBAQYDAAAAAgEBBAYOAAAAQwBhAGwAaQBiAHIAaQAJAQEGBQAAAAAAACZAB0cAAAABBgMAAAACAQEEBi4AAABWAGEAcgAoAC0ALQB0AHkAcABvAC0AZgBvAG4AdAAtAGYAYQBtAGkAbAB5ACkABgUAAAAAAAAmQA4pAAAAAyQAAAABAQEGBAAAAAACAQEHBAAAAAADAQEIBAAAAAAEAQEJBAAAAAACSQIAAAMeAAAABgQAAAAABwQAAAAACAQAAAAACQQAAAAADAQAAAAAAx4AAAAGBAAAAAAHBAAAAAAIBAAAAAAJBAAAAAAMBAAAAAADLQAAAAYEAAAAAAcEAAAAAAgEAAAAAAkEAAAAAAABAQ0GBgAAAAABAAcBBAwEAAAAAAMtAAAABgQAAAAABwQAAAAAAwEBCAQBAAAACQQAAAAAAAEBDQYDAAAAAAEADAQAAAAAAzAAAAAGBAAAAAAHBAAAAAADAQEIBAEAAAAJBAAAAAAAAQENBgYAAAAAAQAHAQQMBAAAAAADMAAAAAYEAAAAAAcEAAAAAAMBAQgEAgAAAAkEAAAAAAABAQ0GBgAAAAABBgcBAQwEAAAAAAMwAAAABgQAAAAABwQAAAAAAwEBCAQCAAAACQQAAAAAAAEBDQYGAAAAAAEABwEEDAQAAAAAAzMAAAAGBAAAAAAHBAAAAAADAQEIBAIAAAAEAQEJBAMAAAAAAQENBgYAAAAAAQYHAQEMBAAAAAADIQAAAAYEAAAAAAIBAQcEAgAAAAgEAAAAAAkEAAAAAAwEAAAAAAMzAAAABgQAAAAAAgEBBwQCAAAAAwEBCAQCAAAACQQAAAAAAAEBDQYGAAAAAAEGBwEBDAQAAAAAAzMAAAAGBAAAAAACAQEHBAIAAAADAQEIBAIAAAAJBAAAAAAAAQENBgYAAAAAAQAHAQQMBAAAAAADLQAAAAYEAAAAAAIBAQcEAgAAAAgEAAAAAAkEAAAAAAABAQ0GAwAAAAABBwwEAAAAAA8qAAAAECUAAAAABAAAAAAAAAAEDgAAAB4EMQRLBEcEPQRLBDkEBQQAAAAAAAAADE4AAAAAIgAAAFQAYQBiAGwAZQBTAHQAeQBsAGUATQBlAGQAaQB1AG0AMgABIgAAAFAAaQB2AG8AdABTAHQAeQBsAGUATABpAGcAaAB0ADEANgARNwAAAAAyAAAA+gARAAAAUwBsAGkAYwBlAHIAUwB0AHkAbABlAEwAaQBnAGgAdAAxAPsABAAAAAAAAAAIAAAAAA==&quot; style=&quot;border-collapse: collapse;font-family:Calibri;font-size:11pt;color:#000;background-color:transparent;&quot;&gt;&lt;tbody&gt;&lt;tr style=&quot;height:nullpt&quot;&gt;&lt;td style=&quot;width:66.42857142857142pt;white-space:nowrap;text-align:center;vertical-align:bottom;&quot;&gt;&lt;span style=&quot;font-weight:bold;vertical-align:baseline;&quot;&gt;Код&lt;/span&gt;&lt;/td&gt;&lt;td style=&quot;width:151.42857142857142pt;white-space:nowrap;text-align:center;vertical-align:bottom;&quot;&gt;&lt;span style=&quot;font-weight:bold;vertical-align:baseline;&quot;&gt;Краткое наименование&lt;/span&gt;&lt;/td&gt;&lt;td style=&quot;width:363.5714285714285pt;white-space:nowrap;text-align:center;vertical-align:bottom;&quot;&gt;&lt;span style=&quot;font-weight:bold;vertical-align:baseline;&quot;&gt;Полное наименование&lt;/span&gt;&lt;/td&gt;&lt;td colspan=&quot;4&quot; rowspan=&quot;1&quot; style=&quot;width:475.71428571428567pt;white-space:nowrap;text-align:center;vertical-align:bottom;&quot;&gt;&lt;span style=&quot;font-weight:bold;vertical-align:baseline;&quot;&gt;Ответ LLM&lt;/span&gt;&lt;/td&gt;&lt;/tr&gt;&lt;tr style=&quot;height:nullpt&quot;&gt;&lt;td style=&quot;width:66.42857142857142pt;white-space:nowrap;text-align:center;vertical-align:bottom;&quot;&gt;&lt;span style=&quot;font-weight:bold;vertical-align:baseline;&quot;&gt;codeForPrint&lt;/span&gt;&lt;/td&gt;&lt;td style=&quot;width:151.42857142857142pt;white-space:nowrap;text-align:center;vertical-align:bottom;&quot;&gt;&lt;span style=&quot;font-weight:bold;vertical-align:baseline;&quot;&gt;name&lt;/span&gt;&lt;/td&gt;&lt;td style=&quot;width:363.5714285714285pt;white-space:nowrap;text-align:center;vertical-align:bottom;&quot;&gt;&lt;span style=&quot;font-weight:bold;vertical-align:baseline;&quot;&gt;text&lt;/span&gt;&lt;/td&gt;&lt;td style=&quot;width:253.57142857142853pt;white-space:nowrap;text-align:center;vertical-align:bottom;&quot;&gt;&lt;span style=&quot;font-weight:bold;vertical-align:baseline;&quot;&gt;Сокращенное&lt;/span&gt;&lt;/td&gt;&lt;td style=&quot;width:47.857142857142854pt;white-space:nowrap;text-align:center;vertical-align:top;&quot;&gt;&lt;span style=&quot;font-weight:bold;vertical-align:baseline;&quot;&gt;Знак&lt;/span&gt;&lt;/td&gt;&lt;td style=&quot;width:87.85714285714285pt;white-space:nowrap;text-align:center;vertical-align:bottom;&quot;&gt;&lt;span style=&quot;font-weight:bold;vertical-align:baseline;&quot;&gt;Значение&lt;/span&gt;&lt;/td&gt;&lt;td style=&quot;width:86.42857142857142pt;white-space:nowrap;text-align:center;vertical-align:bottom;&quot;&gt;&lt;span style=&quot;font-weight:bold;vertical-align:baseline;&quot;&gt;Ед изм/валюта&lt;/span&gt;&lt;/td&gt;&lt;/tr&gt;&lt;tr style=&quot;height:nullpt&quot;&gt;&lt;td style=&quot;width:66.42857142857142pt;white-space:nowrap;vertical-align:bottom;&quot;&gt;&lt;span style=&quot;vertical-align:baseline;&quot;&gt;SF_1.1_V1&lt;/span&gt;&lt;/td&gt;&lt;td style=&quot;width:151.42857142857142pt;white-space:nowrap;vertical-align:bottom;&quot;&gt;&lt;span style=&quot;vertical-align:baseline;&quot;&gt;Соблюдение показателя долговой нагрузки&lt;/span&gt;&lt;/td&gt;&lt;td style=&quot;width:363.5714285714285pt;white-space:nowrap;vertical-align:bottom;&quot;&gt;&lt;span style=&quot;vertical-align:baseline;&quot;&gt;Превышение в отношении участников Группы, указанной в Перечне 1 Приложения «Состав Группы» к Договору, соотношения показателей Долг/EBITDA, устанавливаемого на каждую отчетную дату (по РСБУ), уровня:&lt;br&gt;с ближайшей отчетной даты (по РСБУ), следующей за датой заключения Договора, – более 3,5 (Трех целых пяти десятых) (включительно);&lt;br&gt;или снижение соотношения показателей Долг/EBITDA до отрицательного значения.&lt;br&gt;В расчет Долга включаются агентский факторинг.&lt;br&gt;В расчет Долга не включаются предоставленные участнику(ам) Группы, указанной в Перечне 1 Приложения «Состав Группы» к Договору, займы, кредиты и иные денежные обязательства, субординированные следующим(ими) способом(ами):&lt;br&gt;1) займы, конвертированные в векселя (путем выпуска простых векселей, параметры которых согласованы с Банком), и оформление залога данных векселей в пользу Банка с передачей Банку.&lt;br&gt;2) денежные обязательства участников Группы, в отношении которых между соответствующим участником Группы, Банком и другими кредиторами заключено(ы) соглашение(ия) кредиторов о порядке удовлетворения их требований к соответствующему участнику Группы на условиях, согласованных с Банком.&lt;/span&gt;&lt;/td&gt;&lt;td style=&quot;width:253.57142857142853pt;white-space:nowrap;text-align:left;vertical-align:middle;&quot;&gt;&lt;span style=&quot;font-family:Var(--typo-font-family);vertical-align:baseline;&quot;&gt;Долг / EBITDA по ГК&lt;/span&gt;&lt;/td&gt;&lt;td style=&quot;width:47.857142857142854pt;white-space:nowrap;text-align:center;vertical-align:top;&quot;&gt;&lt;span style=&quot;font-family:Var(--typo-font-family);vertical-align:baseline;&quot;&gt;&amp;lt;=&lt;/span&gt;&lt;/td&gt;&lt;td style=&quot;width:87.85714285714285pt;white-space:nowrap;vertical-align:bottom;&quot;&gt;&lt;span style=&quot;vertical-align:baseline;&quot;&gt;3,5&lt;/span&gt;&lt;/td&gt;&lt;td style=&quot;width:86.42857142857142pt;white-space:nowrap;text-align:left;vertical-align:middle;&quot;&gt;&lt;span style=&quot;font-family:Var(--typo-font-family);vertical-align:baseline;&quot;&gt;&lt;/span&gt;&lt;/td&gt;&lt;/tr&gt;&lt;tr style=&quot;height:nullpt&quot;&gt;&lt;td style=&quot;width:66.42857142857142pt;white-space:nowrap;vertical-align:bottom;&quot;&gt;&lt;span style=&quot;vertical-align:baseline;&quot;&gt;SF_1.1_V1&lt;/span&gt;&lt;/td&gt;&lt;td style=&quot;width:151.42857142857142pt;white-space:nowrap;vertical-align:bottom;&quot;&gt;&lt;span style=&quot;vertical-align:baseline;&quot;&gt;Соблюдение показателя долговой нагрузки&lt;/span&gt;&lt;/td&gt;&lt;td style=&quot;width:363.5714285714285pt;white-space:nowrap;vertical-align:bottom;&quot;&gt;&lt;span style=&quot;vertical-align:baseline;&quot;&gt;Превышение в отношении Клиента соотношения показателей Долг/EBITDA, устанавливаемого на каждую отчетную дату (по РСБУ), уровня:&lt;br&gt;с ближайшей отчетной даты (по РСБУ), следующей за датой заключения Договора, – более 4,5 (Четырех целых пяти десятых) (включительно);&lt;br&gt;или снижение соотношения показателей Долг/EBITDA до отрицательного значения.&lt;br&gt;В расчет Долга не включаются обязательства перед следующими лицами: ШИДОВ ЗАУР МУХАМЕДОВИЧ.&lt;/span&gt;&lt;/td&gt;&lt;td style=&quot;width:253.57142857142853pt;white-space:nowrap;text-align:left;vertical-align:middle;&quot;&gt;&lt;span style=&quot;font-family:Var(--typo-font-family);vertical-align:baseline;&quot;&gt;Долг / EBITDA&lt;/span&gt;&lt;/td&gt;&lt;td style=&quot;width:47.857142857142854pt;white-space:nowrap;text-align:center;vertical-align:top;&quot;&gt;&lt;span style=&quot;font-family:Var(--typo-font-family);vertical-align:baseline;&quot;&gt;&amp;lt;=&lt;/span&gt;&lt;/td&gt;&lt;td style=&quot;width:87.85714285714285pt;white-space:nowrap;vertical-align:bottom;&quot;&gt;&lt;span style=&quot;vertical-align:baseline;&quot;&gt;4,5&lt;/span&gt;&lt;/td&gt;&lt;td&gt;&lt;/td&gt;&lt;/tr&gt;&lt;tr style=&quot;height:nullpt&quot;&gt;&lt;td style=&quot;width:66.42857142857142pt;white-space:nowrap;vertical-align:bottom;&quot;&gt;&lt;span style=&quot;vertical-align:baseline;&quot;&gt;SF_1.1_V1&lt;/span&gt;&lt;/td&gt;&lt;td style=&quot;width:151.42857142857142pt;white-space:nowrap;vertical-align:bottom;&quot;&gt;&lt;span style=&quot;vertical-align:baseline;&quot;&gt;Соблюдение показателя долговой нагрузки&lt;/span&gt;&lt;/td&gt;&lt;td style=&quot;width:363.5714285714285pt;white-space:nowrap;vertical-align:bottom;&quot;&gt;&lt;span style=&quot;vertical-align:baseline;&quot;&gt;Превышение в отношении Клиента соотношения показателей Долг/EBITDA, устанавливаемого на каждую отчетную дату (по РСБУ), уровня:&lt;br&gt;с ближайшей отчетной даты (по РСБУ), следующей за датой заключения Договора, – более 4 (Четырех) (включительно);&lt;br&gt;или снижение соотношения показателей Долг/EBITDA до отрицательного значения.&lt;/span&gt;&lt;/td&gt;&lt;td style=&quot;width:253.57142857142853pt;white-space:nowrap;text-align:left;vertical-align:middle;&quot;&gt;&lt;span style=&quot;font-family:Var(--typo-font-family);vertical-align:baseline;&quot;&gt;Долг / EBITDA&lt;/span&gt;&lt;/td&gt;&lt;td style=&quot;width:47.857142857142854pt;white-space:nowrap;text-align:center;vertical-align:top;&quot;&gt;&lt;span style=&quot;font-family:Var(--typo-font-family);vertical-align:baseline;&quot;&gt;&amp;lt;=&lt;/span&gt;&lt;/td&gt;&lt;td style=&quot;width:87.85714285714285pt;white-space:nowrap;vertical-align:bottom;&quot;&gt;&lt;span style=&quot;vertical-align:baseline;&quot;&gt;4&lt;/span&gt;&lt;/td&gt;&lt;td&gt;&lt;/td&gt;&lt;/tr&gt;&lt;tr style=&quot;height:nullpt&quot;&gt;&lt;td style=&quot;width:66.42857142857142pt;white-space:nowrap;vertical-align:bottom;&quot;&gt;&lt;span style=&quot;vertical-align:baseline;&quot;&gt;SF_1.1_V1&lt;/span&gt;&lt;/td&gt;&lt;td style=&quot;width:151.42857142857142pt;white-space:nowrap;vertical-align:bottom;&quot;&gt;&lt;span style=&quot;vertical-align:baseline;&quot;&gt;Соблюдение показателя долговой нагрузки&lt;/span&gt;&lt;/td&gt;&lt;td style=&quot;width:363.5714285714285pt;white-space:nowrap;vertical-align:bottom;&quot;&gt;&lt;span style=&quot;vertical-align:baseline;&quot;&gt;Превышение в отношении участников Группы, указанной в Перечне 1 Приложения «Состав Группы» к Договору, соотношения показателей Долг/EBITDA, устанавливаемого на каждую отчетную дату (по РСБУ), уровня:&lt;br&gt;с ближайшей отчетной даты (по РСБУ), следующей за датой заключения Договора, – более 4 (Четырех) (включительно);&lt;br&gt;или снижение соотношения показателей Долг/EBITDA до отрицательного значения.&lt;/span&gt;&lt;/td&gt;&lt;td style=&quot;width:253.57142857142853pt;white-space:nowrap;text-align:left;vertical-align:middle;&quot;&gt;&lt;span style=&quot;font-family:Var(--typo-font-family);vertical-align:baseline;&quot;&gt;Долг / EBITDA по ГК&lt;/span&gt;&lt;/td&gt;&lt;td style=&quot;width:47.857142857142854pt;white-space:nowrap;text-align:center;vertical-align:top;&quot;&gt;&lt;span style=&quot;font-family:Var(--typo-font-family);vertical-align:baseline;&quot;&gt;&amp;lt;=&lt;/span&gt;&lt;/td&gt;&lt;td style=&quot;width:87.85714285714285pt;white-space:nowrap;vertical-align:bottom;&quot;&gt;&lt;span style=&quot;vertical-align:baseline;&quot;&gt;4&lt;/span&gt;&lt;/td&gt;&lt;td&gt;&lt;/td&gt;&lt;/tr&gt;&lt;tr style=&quot;height:nullpt&quot;&gt;&lt;td style=&quot;width:66.42857142857142pt;white-space:nowrap;vertical-align:bottom;&quot;&gt;&lt;span style=&quot;vertical-align:baseline;&quot;&gt;SF_1.1_V1&lt;/span&gt;&lt;/td&gt;&lt;td style=&quot;width:151.42857142857142pt;white-space:nowrap;vertical-align:bottom;&quot;&gt;&lt;span style=&quot;vertical-align:baseline;&quot;&gt;Соблюдение показателя долговой нагрузки&lt;/span&gt;&lt;/td&gt;&lt;td style=&quot;width:363.5714285714285pt;white-space:nowrap;vertical-align:bottom;&quot;&gt;&lt;span style=&quot;vertical-align:baseline;&quot;&gt;Превышение в отношении Клиента соотношения показателей Долг/EBITDA, устанавливаемого на каждую отчетную дату (по РСБУ), уровня:&lt;br&gt;с ближайшей отчетной даты (по РСБУ), следующей за датой заключения Договора, – более 2,5 (Двух целых пяти десятых) (включительно);&lt;br&gt;или снижение соотношения показателей Долг/EBITDA до отрицательного значения.&lt;br&gt;В расчет Долга не включаются предоставленные Клиенту займы, кредиты и иные денежные обязательства, субординированные следующим(ими) способом(ами):&lt;br&gt;1) займы, конвертированные в векселя (путем выпуска простых векселей, параметры которых согласованы с Банком), и оформление залога данных векселей в пользу Банка с передачей Банку.&lt;br&gt;2) денежные обязательства Клиента, в отношении которых между Клиентом, Банком и иными кредиторами заключено(ы) соглашение(ия) кредиторов о порядке удовлетворения их требований к Клиенту на условиях, согласованных с Банком.&lt;/span&gt;&lt;/td&gt;&lt;td style=&quot;width:253.57142857142853pt;white-space:nowrap;text-align:left;vertical-align:middle;&quot;&gt;&lt;span style=&quot;font-family:Var(--typo-font-family);vertical-align:baseline;&quot;&gt;Долг / EBITDA&lt;/span&gt;&lt;/td&gt;&lt;td style=&quot;width:47.857142857142854pt;white-space:nowrap;text-align:center;vertical-align:top;&quot;&gt;&lt;span style=&quot;font-family:Var(--typo-font-family);vertical-align:baseline;&quot;&gt;&amp;lt;=&lt;/span&gt;&lt;/td&gt;&lt;td style=&quot;width:87.85714285714285pt;white-space:nowrap;vertical-align:bottom;&quot;&gt;&lt;span style=&quot;vertical-align:baseline;&quot;&gt;2,5&lt;/span&gt;&lt;/td&gt;&lt;td&gt;&lt;/td&gt;&lt;/tr&gt;&lt;tr style=&quot;height:nullpt&quot;&gt;&lt;td style=&quot;width:66.42857142857142pt;white-space:nowrap;vertical-align:bottom;&quot;&gt;&lt;span style=&quot;vertical-align:baseline;&quot;&gt;SF_1.1_V1&lt;/span&gt;&lt;/td&gt;&lt;td style=&quot;width:151.42857142857142pt;white-space:nowrap;vertical-align:bottom;&quot;&gt;&lt;span style=&quot;vertical-align:baseline;&quot;&gt;Соблюдение показателя долговой нагрузки&lt;/span&gt;&lt;/td&gt;&lt;td style=&quot;width:363.5714285714285pt;white-space:nowrap;vertical-align:bottom;&quot;&gt;&lt;span style=&quot;vertical-align:baseline;&quot;&gt;Превышение в отношении Клиента соотношения показателей Долг/EBITDA, устанавливаемого на каждую отчетную дату (по РСБУ), уровня:&lt;br&gt;с ближайшей отчетной даты (по РСБУ), следующей за датой заключения Договора, – более 3 (Трех) (включительно);&lt;br&gt;или снижение соотношения показателей Долг/EBITDA до отрицательного значения.&lt;/span&gt;&lt;/td&gt;&lt;td style=&quot;width:253.57142857142853pt;white-space:nowrap;text-align:left;vertical-align:middle;&quot;&gt;&lt;span style=&quot;font-family:Var(--typo-font-family);vertical-align:baseline;&quot;&gt;Долг / EBITDA&lt;/span&gt;&lt;/td&gt;&lt;td style=&quot;width:47.857142857142854pt;white-space:nowrap;text-align:center;vertical-align:top;&quot;&gt;&lt;span style=&quot;font-family:Var(--typo-font-family);vertical-align:baseline;&quot;&gt;&amp;lt;=&lt;/span&gt;&lt;/td&gt;&lt;td style=&quot;width:87.85714285714285pt;white-space:nowrap;vertical-align:bottom;&quot;&gt;&lt;span style=&quot;vertical-align:baseline;&quot;&gt;3&lt;/span&gt;&lt;/td&gt;&lt;td&gt;&lt;/td&gt;&lt;/tr&gt;&lt;tr style=&quot;height:nullpt&quot;&gt;&lt;td style=&quot;width:66.42857142857142pt;white-space:nowrap;vertical-align:bottom;&quot;&gt;&lt;span style=&quot;vertical-align:baseline;&quot;&gt;SF_1.1_V2&lt;/span&gt;&lt;/td&gt;&lt;td style=&quot;width:151.42857142857142pt;white-space:nowrap;vertical-align:bottom;&quot;&gt;&lt;span style=&quot;vertical-align:baseline;&quot;&gt;Соблюдение показателя долговой нагрузки&lt;/span&gt;&lt;/td&gt;&lt;td style=&quot;width:363.5714285714285pt;white-space:nowrap;vertical-align:bottom;&quot;&gt;&lt;span style=&quot;vertical-align:baseline;&quot;&gt;Превышение в отношении Клиента соотношения показателей Чистый долг/EBITDA, устанавливаемого на каждую отчетную дату (по РСБУ), уровня:&lt;br&gt;с ближайшей отчетной даты (по РСБУ), следующей за датой заключения Договора, – более 5 (Пяти) (включительно);&lt;br&gt;или снижение соотношения показателей Чистый долг/EBITDA до отрицательного значения.&lt;/span&gt;&lt;/td&gt;&lt;td style=&quot;width:253.57142857142853pt;white-space:nowrap;text-align:left;vertical-align:middle;&quot;&gt;&lt;span style=&quot;font-family:Var(--typo-font-family);vertical-align:baseline;&quot;&gt;Чистый долг / EBITDA&lt;/span&gt;&lt;/td&gt;&lt;td style=&quot;width:47.857142857142854pt;white-space:nowrap;text-align:center;vertical-align:top;&quot;&gt;&lt;span style=&quot;font-family:Var(--typo-font-family);vertical-align:baseline;&quot;&gt;&amp;lt;=&lt;/span&gt;&lt;/td&gt;&lt;td style=&quot;width:87.85714285714285pt;white-space:nowrap;vertical-align:bottom;&quot;&gt;&lt;span style=&quot;vertical-align:baseline;&quot;&gt;5&lt;/span&gt;&lt;/td&gt;&lt;td style=&quot;width:86.42857142857142pt;white-space:nowrap;text-align:left;vertical-align:middle;&quot;&gt;&lt;span style=&quot;font-family:Var(--typo-font-family);vertical-align:baseline;&quot;&gt;&lt;/span&gt;&lt;/td&gt;&lt;/tr&gt;&lt;tr style=&quot;height:nullpt&quot;&gt;&lt;td style=&quot;width:66.42857142857142pt;white-space:nowrap;vertical-align:bottom;&quot;&gt;&lt;span style=&quot;vertical-align:baseline;&quot;&gt;SF_1.1_V2&lt;/span&gt;&lt;/td&gt;&lt;td style=&quot;width:151.42857142857142pt;white-space:nowrap;vertical-align:bottom;&quot;&gt;&lt;span style=&quot;vertical-align:baseline;&quot;&gt;Соблюдение показателя долговой нагрузки&lt;/span&gt;&lt;/td&gt;&lt;td style=&quot;width:363.5714285714285pt;white-space:nowrap;vertical-align:bottom;&quot;&gt;&lt;span style=&quot;vertical-align:baseline;&quot;&gt;Превышение в отношении участников Группы, указанной в Перечне 1 Приложения «Состав Группы» к Договору, соотношения показателей Чистый долг/EBITDA, устанавливаемого на каждую отчетную дату и на дату выдачи кредитных средств (по РСБУ), уровня:&lt;br&gt;с ближайшей отчетной даты (по РСБУ), следующей за датой заключения Договора, или с даты первой выдачи кредита (включительно) (в зависимости от того, какое(ая) событие (дата) наступит ранее) – более 5 (Пяти) (включительно);&lt;br&gt;или снижение соотношения показателей Чистый долг/EBITDA до отрицательного значения.&lt;/span&gt;&lt;/td&gt;&lt;td style=&quot;width:253.57142857142853pt;white-space:nowrap;text-align:left;vertical-align:middle;&quot;&gt;&lt;span style=&quot;font-family:Var(--typo-font-family);vertical-align:baseline;&quot;&gt;Чистый долг / EBITDA по ГК&lt;/span&gt;&lt;/td&gt;&lt;td style=&quot;width:47.857142857142854pt;white-space:nowrap;text-align:center;vertical-align:top;&quot;&gt;&lt;span style=&quot;font-family:Var(--typo-font-family);vertical-align:baseline;&quot;&gt;&amp;lt;=&lt;/span&gt;&lt;/td&gt;&lt;td style=&quot;width:87.85714285714285pt;white-space:nowrap;vertical-align:bottom;&quot;&gt;&lt;span style=&quot;vertical-align:baseline;&quot;&gt;5&lt;/span&gt;&lt;/td&gt;&lt;td style=&quot;width:86.42857142857142pt;white-space:nowrap;text-align:left;vertical-align:middle;&quot;&gt;&lt;span style=&quot;font-family:Var(--typo-font-family);vertical-align:baseline;&quot;&gt;&lt;/span&gt;&lt;/td&gt;&lt;/tr&gt;&lt;tr style=&quot;height:nullpt&quot;&gt;&lt;td style=&quot;width:66.42857142857142pt;white-space:nowrap;vertical-align:bottom;&quot;&gt;&lt;span style=&quot;vertical-align:baseline;&quot;&gt;SF_1.1_V2&lt;/span&gt;&lt;/td&gt;&lt;td style=&quot;width:151.42857142857142pt;white-space:nowrap;vertical-align:bottom;&quot;&gt;&lt;span style=&quot;vertical-align:baseline;&quot;&gt;Соблюдение показателя долговой нагрузки&lt;/span&gt;&lt;/td&gt;&lt;td style=&quot;width:363.5714285714285pt;white-space:nowrap;vertical-align:bottom;&quot;&gt;&lt;span style=&quot;vertical-align:baseline;&quot;&gt;Превышение в отношении Клиента соотношения показателей Чистый долг/EBITDA, устанавливаемого на каждую отчетную дату (по РСБУ), уровня:&lt;br&gt;с ближайшей отчетной даты (по РСБУ), следующей за датой заключения Договора, – более 4 (Четырех) (включительно);&lt;br&gt;или снижение соотношения показателей Чистый долг/EBITDA до отрицательного значения.&lt;br&gt;В расчет Чистого Долга включаются непокрытые аккредитивы.&lt;/span&gt;&lt;/td&gt;&lt;td style=&quot;width:253.57142857142853pt;white-space:nowrap;text-align:left;vertical-align:middle;&quot;&gt;&lt;span style=&quot;font-family:Var(--typo-font-family);vertical-align:baseline;&quot;&gt;Чистый долг / EBITDA&lt;/span&gt;&lt;/td&gt;&lt;td style=&quot;width:47.857142857142854pt;white-space:nowrap;text-align:center;vertical-align:top;&quot;&gt;&lt;span style=&quot;font-family:Var(--typo-font-family);vertical-align:baseline;&quot;&gt;&amp;lt;=&lt;/span&gt;&lt;/td&gt;&lt;td style=&quot;width:87.85714285714285pt;white-space:nowrap;vertical-align:bottom;&quot;&gt;&lt;span style=&quot;vertical-align:baseline;&quot;&gt;4&lt;/span&gt;&lt;/td&gt;&lt;td&gt;&lt;/td&gt;&lt;/tr&gt;&lt;tr style=&quot;height:nullpt&quot;&gt;&lt;td style=&quot;width:66.42857142857142pt;white-space:nowrap;vertical-align:bottom;&quot;&gt;&lt;span style=&quot;vertical-align:baseline;&quot;&gt;SF_1.1_V3&lt;/span&gt;&lt;/td&gt;&lt;td style=&quot;width:151.42857142857142pt;white-space:nowrap;vertical-align:bottom;&quot;&gt;&lt;span style=&quot;vertical-align:baseline;&quot;&gt;Соблюдение показателя долговой нагрузки&lt;/span&gt;&lt;/td&gt;&lt;td style=&quot;width:363.5714285714285pt;white-space:nowrap;vertical-align:bottom;&quot;&gt;&lt;span style=&quot;vertical-align:baseline;&quot;&gt;Превышение в отношении Клиента соотношения показателей Долг/Выручка, устанавливаемого на каждую отчетную дату (по РСБУ), уровня:&lt;br&gt;с ближайшей отчетной даты (по РСБУ), следующей за датой заключения Договора, – более 0,4 (Ноля целых четырех десятых) (включительно);&lt;br&gt;или снижение соотношения показателей Долг/Выручка до отрицательного значения.&lt;/span&gt;&lt;/td&gt;&lt;td style=&quot;width:253.57142857142853pt;white-space:nowrap;text-align:left;vertical-align:middle;&quot;&gt;&lt;span style=&quot;font-family:Var(--typo-font-family);vertical-align:baseline;&quot;&gt;Долг / Выручка&lt;/span&gt;&lt;/td&gt;&lt;td style=&quot;width:47.857142857142854pt;white-space:nowrap;text-align:center;vertical-align:top;&quot;&gt;&lt;span style=&quot;font-family:Var(--typo-font-family);vertical-align:baseline;&quot;&gt;&amp;lt;=&lt;/span&gt;&lt;/td&gt;&lt;td style=&quot;width:87.85714285714285pt;white-space:nowrap;vertical-align:bottom;&quot;&gt;&lt;span style=&quot;vertical-align:baseline;&quot;&gt;0,4&lt;/span&gt;&lt;/td&gt;&lt;td style=&quot;width:86.42857142857142pt;white-space:nowrap;text-align:left;vertical-align:middle;&quot;&gt;&lt;span style=&quot;font-family:Var(--typo-font-family);vertical-align:baseline;&quot;&gt;&lt;/span&gt;&lt;/td&gt;&lt;/tr&gt;&lt;tr style=&quot;height:nullpt&quot;&gt;&lt;td style=&quot;width:66.42857142857142pt;white-space:nowrap;vertical-align:bottom;&quot;&gt;&lt;span style=&quot;vertical-align:baseline;&quot;&gt;SF_1.1_V3&lt;/span&gt;&lt;/td&gt;&lt;td style=&quot;width:151.42857142857142pt;white-space:nowrap;vertical-align:bottom;&quot;&gt;&lt;span style=&quot;vertical-align:baseline;&quot;&gt;Соблюдение показателя долговой нагрузки&lt;/span&gt;&lt;/td&gt;&lt;td style=&quot;width:363.5714285714285pt;white-space:nowrap;vertical-align:bottom;&quot;&gt;&lt;span style=&quot;vertical-align:baseline;&quot;&gt;Превышение в отношении Клиента соотношения показателей ДÐ¾лг/Выручка, устанавливаемого на каждую отчетную дату (по РСБУ), уровня:&lt;br&gt;&lt;br&gt;с ближайшей отчетной даты (по РСБУ), следующей за датой заключения Договора, – более 0,25 (Ноля целых двадцати пяти сотых) (включительно);&lt;br&gt;&lt;br&gt;или снижение соотношения показателей Долг/Выручка до отрицательного значения.&lt;br&gt;&lt;br&gt;В расчет Долга не включаются обязательства перед следующими лицами: ШИДОВ ЗАУР МУХАМЕДОВИЧ.&lt;/span&gt;&lt;/td&gt;&lt;td style=&quot;width:253.57142857142853pt;white-space:nowrap;text-align:left;vertical-align:middle;&quot;&gt;&lt;span style=&quot;font-family:Var(--typo-font-family);vertical-align:baseline;&quot;&gt;Долг / Выручка&lt;/span&gt;&lt;/td&gt;&lt;td style=&quot;width:47.857142857142854pt;white-space:nowrap;text-align:center;vertical-align:top;&quot;&gt;&lt;span style=&quot;font-family:Var(--typo-font-family);vertical-align:baseline;&quot;&gt;&amp;lt;=&lt;/span&gt;&lt;/td&gt;&lt;td style=&quot;width:87.85714285714285pt;white-space:nowrap;vertical-align:bottom;&quot;&gt;&lt;span style=&quot;vertical-align:baseline;&quot;&gt;0,25&lt;/span&gt;&lt;/td&gt;&lt;td&gt;&lt;/td&gt;&lt;/tr&gt;&lt;tr style=&quot;height:nullpt&quot;&gt;&lt;td style=&quot;width:66.42857142857142pt;white-space:nowrap;vertical-align:bottom;&quot;&gt;&lt;span style=&quot;vertical-align:baseline;&quot;&gt;SF_1.2_V1&lt;/span&gt;&lt;/td&gt;&lt;td style=&quot;width:151.42857142857142pt;white-space:nowrap;vertical-align:bottom;&quot;&gt;&lt;span style=&quot;vertical-align:baseline;&quot;&gt;Ограничение объема предъявленных исков&lt;/span&gt;&lt;/td&gt;&lt;td style=&quot;width:363.5714285714285pt;white-space:nowrap;vertical-align:bottom;&quot;&gt;&lt;span style=&quot;vertical-align:baseline;&quot;&gt;Предъявление любому Участнику сделки иска(ов) и/или принятие судом к производству искового(ых) заявления(ий) об уплате денежной суммы и/или об истребовании имущества на совокупную сумму, превышающую 10 000 000 (Десять миллионов) рублей в отношении любого из указанных в настоящем пункте лиц.&lt;/span&gt;&lt;/td&gt;&lt;td style=&quot;width:253.57142857142853pt;white-space:nowrap;text-align:left;vertical-align:middle;&quot;&gt;&lt;span style=&quot;font-family:Var(--typo-font-family);vertical-align:baseline;&quot;&gt;Ограничение объема предъявленных исков&lt;/span&gt;&lt;/td&gt;&lt;td style=&quot;width:47.857142857142854pt;white-space:nowrap;text-align:center;vertical-align:top;&quot;&gt;&lt;span style=&quot;font-family:Var(--typo-font-family);vertical-align:baseline;&quot;&gt;&amp;lt;&lt;/span&gt;&lt;/td&gt;&lt;td style=&quot;width:87.85714285714285pt;white-space:nowrap;text-align:left;vertical-align:middle;&quot;&gt;&lt;span style=&quot;font-family:Var(--typo-font-family);vertical-align:baseline;&quot;&gt;10 000 000&lt;/span&gt;&lt;/td&gt;&lt;td style=&quot;width:86.42857142857142pt;white-space:nowrap;text-align:left;vertical-align:middle;&quot;&gt;&lt;span style=&quot;font-family:Var(--typo-font-family);vertical-align:baseline;&quot;&gt;рублей&lt;/span&gt;&lt;/td&gt;&lt;/tr&gt;&lt;tr style=&quot;height:nullpt&quot;&gt;&lt;td style=&quot;width:66.42857142857142pt;white-space:nowrap;vertical-align:bottom;&quot;&gt;&lt;span style=&quot;vertical-align:baseline;&quot;&gt;SF_1.2_V2&lt;/span&gt;&lt;/td&gt;&lt;td style=&quot;width:151.42857142857142pt;white-space:nowrap;vertical-align:bottom;&quot;&gt;&lt;span style=&quot;vertical-align:baseline;&quot;&gt;Ограничение объема предъявленных исков&lt;/span&gt;&lt;/td&gt;&lt;td style=&quot;width:363.5714285714285pt;white-space:nowrap;vertical-align:bottom;&quot;&gt;&lt;span style=&quot;vertical-align:baseline;&quot;&gt;Предъявление иска(ов) и/или принятие судом к производству искового(ых) заявления(ий) об уплате денежной суммы и/или об истребовании имущества:&lt;br&gt;– применительно к Клиенту в совокупном размере, превышающем 10 000 000 (Десять миллионов) рублей;&lt;br&gt;– применительно к поручителю и/или залогодателю и/или гаранту в совокупном размере, превышающем 10 000 000 (Десять миллионов) рублей.&lt;/span&gt;&lt;/td&gt;&lt;td style=&quot;width:253.57142857142853pt;white-space:nowrap;text-align:left;vertical-align:middle;&quot;&gt;&lt;span style=&quot;font-family:Var(--typo-font-family);vertical-align:baseline;&quot;&gt;Ограничение объема предъявленных исков&lt;/span&gt;&lt;/td&gt;&lt;td style=&quot;width:47.857142857142854pt;white-space:nowrap;text-align:center;vertical-align:top;&quot;&gt;&lt;span style=&quot;font-family:Var(--typo-font-family);vertical-align:baseline;&quot;&gt;&amp;lt;&lt;/span&gt;&lt;/td&gt;&lt;td style=&quot;width:87.85714285714285pt;white-space:nowrap;text-align:left;vertical-align:middle;&quot;&gt;&lt;span style=&quot;font-family:Var(--typo-font-family);vertical-align:baseline;&quot;&gt;10 000 000&lt;/span&gt;&lt;/td&gt;&lt;td style=&quot;width:86.42857142857142pt;white-space:nowrap;text-align:left;vertical-align:middle;&quot;&gt;&lt;span style=&quot;font-family:Var(--typo-font-family);vertical-align:baseline;&quot;&gt;рублей&lt;/span&gt;&lt;/td&gt;&lt;/tr&gt;&lt;tr style=&quot;height:nullpt&quot;&gt;&lt;td style=&quot;width:66.42857142857142pt;white-space:nowrap;vertical-align:bottom;&quot;&gt;&lt;span style=&quot;vertical-align:baseline;&quot;&gt;SF_1.2_V3&lt;/span&gt;&lt;/td&gt;&lt;td style=&quot;width:151.42857142857142pt;white-space:nowrap;vertical-align:bottom;&quot;&gt;&lt;span style=&quot;vertical-align:baseline;&quot;&gt;Ограничение объема предъявленных исков&lt;/span&gt;&lt;/td&gt;&lt;td style=&quot;width:363.5714285714285pt;white-space:nowrap;vertical-align:bottom;&quot;&gt;&lt;span style=&quot;vertical-align:baseline;&quot;&gt;Предъявление любому Участнику сделки иска(ов) и/или принятие судом к производству искового(ых) заявления(ий) об уплате денежной суммы и/или об истребовании имущества на совокупную сумму в отношении любого Участника сделки, превышающую 10 (Десять) процентов от показателя «Валюта баланса» по состоянию на последнюю отчетную дату (по РСБУ).&lt;/span&gt;&lt;/td&gt;&lt;td style=&quot;width:253.57142857142853pt;white-space:nowrap;text-align:left;vertical-align:middle;&quot;&gt;&lt;span style=&quot;font-family:Var(--typo-font-family);vertical-align:baseline;&quot;&gt;Ограничение объема предъявленных исков&lt;/span&gt;&lt;/td&gt;&lt;td style=&quot;width:47.857142857142854pt;white-space:nowrap;text-align:center;vertical-align:top;&quot;&gt;&lt;span style=&quot;font-family:Var(--typo-font-family);vertical-align:baseline;&quot;&gt;&amp;lt;&lt;/span&gt;&lt;/td&gt;&lt;td style=&quot;width:87.85714285714285pt;white-space:nowrap;text-align:left;vertical-align:middle;&quot;&gt;&lt;span style=&quot;font-family:Var(--typo-font-family);vertical-align:baseline;&quot;&gt;10&lt;/span&gt;&lt;/td&gt;&lt;td style=&quot;width:86.42857142857142pt;white-space:nowrap;text-align:left;vertical-align:middle;&quot;&gt;&lt;span style=&quot;font-family:Var(--typo-font-family);vertical-align:baseline;&quot;&gt;% ВБ&lt;/span&gt;&lt;/td&gt;&lt;/tr&gt;&lt;tr style=&quot;height:nullpt&quot;&gt;&lt;td style=&quot;width:66.42857142857142pt;white-space:nowrap;vertical-align:bottom;&quot;&gt;&lt;span style=&quot;vertical-align:baseline;&quot;&gt;SF_1.2_V3&lt;/span&gt;&lt;/td&gt;&lt;td style=&quot;width:151.42857142857142pt;white-space:nowrap;vertical-align:bottom;&quot;&gt;&lt;span style=&quot;vertical-align:baseline;&quot;&gt;Ограничение объема предъявленных исков&lt;/span&gt;&lt;/td&gt;&lt;td style=&quot;width:363.5714285714285pt;white-space:nowrap;vertical-align:bottom;&quot;&gt;&lt;span style=&quot;vertical-align:baseline;&quot;&gt;Предъявление любому Участнику сделки иска(ов) и/или принятие судом к производству искового(ых) заявления(ий) об уплате денежной суммы и/или об истребовании имущества на совокупную сумму в отношении любого Участника сделки, превышающую 15 (Пятнадцать) процентов от показателя «Валюта баланса» по состоянию на последнюю отчетную дату (по РСБУ).&lt;/span&gt;&lt;/td&gt;&lt;td style=&quot;width:253.57142857142853pt;white-space:nowrap;text-align:left;vertical-align:middle;&quot;&gt;&lt;span style=&quot;font-family:Var(--typo-font-family);vertical-align:baseline;&quot;&gt;Ограничение объема предъявленных исков&lt;/span&gt;&lt;/td&gt;&lt;td style=&quot;width:47.857142857142854pt;white-space:nowrap;text-align:center;vertical-align:top;&quot;&gt;&lt;span style=&quot;font-family:Var(--typo-font-family);vertical-align:baseline;&quot;&gt;&amp;lt;&lt;/span&gt;&lt;/td&gt;&lt;td style=&quot;width:87.85714285714285pt;white-space:nowrap;text-align:left;vertical-align:middle;&quot;&gt;&lt;span style=&quot;font-family:Var(--typo-font-family);vertical-align:baseline;&quot;&gt;15&lt;/span&gt;&lt;/td&gt;&lt;td style=&quot;width:86.42857142857142pt;white-space:nowrap;text-align:left;vertical-align:middle;&quot;&gt;&lt;span style=&quot;font-family:Var(--typo-font-family);vertical-align:baseline;&quot;&gt;% ВБ&lt;/span&gt;&lt;/td&gt;&lt;/tr&gt;&lt;tr style=&quot;height:nullpt&quot;&gt;&lt;td style=&quot;width:66.42857142857142pt;white-space:nowrap;vertical-align:bottom;&quot;&gt;&lt;span style=&quot;vertical-align:baseline;&quot;&gt;SF_1.2_V3&lt;/span&gt;&lt;/td&gt;&lt;td style=&quot;width:151.42857142857142pt;white-space:nowrap;vertical-align:bottom;&quot;&gt;&lt;span style=&quot;vertical-align:baseline;&quot;&gt;Ограничение объема предъявленных исков&lt;/span&gt;&lt;/td&gt;&lt;td style=&quot;width:363.5714285714285pt;white-space:nowrap;vertical-align:bottom;&quot;&gt;&lt;span style=&quot;vertical-align:baseline;&quot;&gt;Предъявление любому Участнику сделки иска(ов) и/или принятие судом к производству искового(ых) заявления(ий) об уплате денежной суммы и/или об истребовании имущества на совокупную сумму в отношении любого Участника сделки, превышающую 5 (Пять) процентов от показателя «Чистые активы» по состоянию на последнюю отчетную дату (по РСБУ).&lt;/span&gt;&lt;/td&gt;&lt;td style=&quot;width:253.57142857142853pt;white-space:nowrap;text-align:left;vertical-align:middle;&quot;&gt;&lt;span style=&quot;font-family:Var(--typo-font-family);vertical-align:baseline;&quot;&gt;Ограничение объема предъявленных исков&lt;/span&gt;&lt;/td&gt;&lt;td style=&quot;width:47.857142857142854pt;white-space:nowrap;text-align:center;vertical-align:top;&quot;&gt;&lt;span style=&quot;font-family:Var(--typo-font-family);vertical-align:baseline;&quot;&gt;&amp;lt;&lt;/span&gt;&lt;/td&gt;&lt;td style=&quot;width:87.85714285714285pt;white-space:nowrap;text-align:left;vertical-align:middle;&quot;&gt;&lt;span style=&quot;font-family:Var(--typo-font-family);vertical-align:baseline;&quot;&gt;5&lt;/span&gt;&lt;/td&gt;&lt;td style=&quot;width:86.42857142857142pt;white-space:nowrap;text-align:left;vertical-align:middle;&quot;&gt;&lt;span style=&quot;font-family:Var(--typo-font-family);vertical-align:baseline;&quot;&gt;% чистых активов&lt;/span&gt;&lt;/td&gt;&lt;/tr&gt;&lt;tr style=&quot;height:nullpt&quot;&gt;&lt;td style=&quot;width:66.42857142857142pt;white-space:nowrap;vertical-align:bottom;&quot;&gt;&lt;span style=&quot;vertical-align:baseline;&quot;&gt;SF_1.2_V3&lt;/span&gt;&lt;/td&gt;&lt;td style=&quot;width:151.42857142857142pt;white-space:nowrap;vertical-align:bottom;&quot;&gt;&lt;span style=&quot;vertical-align:baseline;&quot;&gt;Ограничение объема предъявленных исков&lt;/span&gt;&lt;/td&gt;&lt;td style=&quot;width:363.5714285714285pt;white-space:nowrap;vertical-align:bottom;&quot;&gt;&lt;span style=&quot;vertical-align:baseline;&quot;&gt;Предъявление любому Участнику сделки иска(ов) и/или принятие судом к производству искового(ых) заявления(ий) об уплате денежной суммы и/или об истребовании имущества на совокупную сумму в отношении любого Участника сделки, превышающую 5 (Пять) процентов от показателя «Валюта баланса» по состоянию на последнюю отчетную дату (по РСБУ).&lt;/span&gt;&lt;/td&gt;&lt;td style=&quot;width:253.57142857142853pt;white-space:nowrap;text-align:left;vertical-align:middle;&quot;&gt;&lt;span style=&quot;font-family:Var(--typo-font-family);vertical-align:baseline;&quot;&gt;Ограничение объема предъявленных исков&lt;/span&gt;&lt;/td&gt;&lt;td style=&quot;width:47.857142857142854pt;white-space:nowrap;text-align:center;vertical-align:top;&quot;&gt;&lt;span style=&quot;font-family:Var(--typo-font-family);vertical-align:baseline;&quot;&gt;&amp;lt;&lt;/span&gt;&lt;/td&gt;&lt;td style=&quot;width:87.85714285714285pt;white-space:nowrap;text-align:left;vertical-align:middle;&quot;&gt;&lt;span style=&quot;font-family:Var(--typo-font-family);vertical-align:baseline;&quot;&gt;5&lt;/span&gt;&lt;/td&gt;&lt;td style=&quot;width:86.42857142857142pt;white-space:nowrap;text-align:left;vertical-align:middle;&quot;&gt;&lt;span style=&quot;font-family:Var(--typo-font-family);vertical-align:baseline;&quot;&gt;% ВБ&lt;/span&gt;&lt;/td&gt;&lt;/tr&gt;&lt;tr style=&quot;height:nullpt&quot;&gt;&lt;td style=&quot;width:66.42857142857142pt;white-space:nowrap;vertical-align:bottom;&quot;&gt;&lt;span style=&quot;vertical-align:baseline;&quot;&gt;SF_2.1_V1&lt;/span&gt;&lt;/td&gt;&lt;td style=&quot;width:151.42857142857142pt;white-space:nowrap;vertical-align:bottom;&quot;&gt;&lt;span style=&quot;vertical-align:baseline;&quot;&gt;Соблюдение показателей: EBITDA / процентные расходы; OIBDA (LTM) / процентные расходы (LTM)&lt;/span&gt;&lt;/td&gt;&lt;td style=&quot;width:363.5714285714285pt;white-space:nowrap;vertical-align:bottom;&quot;&gt;&lt;span style=&quot;vertical-align:baseline;&quot;&gt;Снижение в отношении участников Группы, указанной в Перечне 1 Приложения «Состав Группы» к Договору, соотношения показателей EBITDA / процентные расходы, устанавливаемого на каждую отчетную дату (по РСБУ), ниже уровня:&lt;br&gt;с ближайшей отчетной даты (по РСБУ), следующей за датой заключения Договора, – 1,5 (Одной целой пяти десятых) (включительно).&lt;/span&gt;&lt;/td&gt;&lt;td style=&quot;width:253.57142857142853pt;white-space:nowrap;text-align:left;vertical-align:middle;&quot;&gt;&lt;span style=&quot;font-family:Var(--typo-font-family);vertical-align:baseline;&quot;&gt;EBITDA/% по ГК&lt;/span&gt;&lt;/td&gt;&lt;td style=&quot;width:47.857142857142854pt;white-space:nowrap;text-align:center;vertical-align:top;&quot;&gt;&lt;span style=&quot;font-family:Var(--typo-font-family);vertical-align:baseline;&quot;&gt;&amp;gt;=&lt;/span&gt;&lt;/td&gt;&lt;td style=&quot;width:87.85714285714285pt;white-space:nowrap;vertical-align:bottom;&quot;&gt;&lt;span style=&quot;vertical-align:baseline;&quot;&gt;1,5&lt;/span&gt;&lt;/td&gt;&lt;td style=&quot;width:86.42857142857142pt;white-space:nowrap;text-align:left;vertical-align:middle;&quot;&gt;&lt;span style=&quot;font-family:Var(--typo-font-family);vertical-align:baseline;&quot;&gt;&lt;/span&gt;&lt;/td&gt;&lt;/tr&gt;&lt;tr style=&quot;height:nullpt&quot;&gt;&lt;td style=&quot;width:66.42857142857142pt;white-space:nowrap;vertical-align:bottom;background-color:rgb(255,255,0);&quot;&gt;&lt;span style=&quot;vertical-align:baseline;&quot;&gt;SF_2.1_V1&lt;/span&gt;&lt;/td&gt;&lt;td style=&quot;width:151.42857142857142pt;white-space:nowrap;vertical-align:bottom;background-color:rgb(255,255,0);&quot;&gt;&lt;span style=&quot;vertical-align:baseline;&quot;&gt;Соблюдение показателей: EBITDA / процентные расходы; OIBDA (LTM) / процентные расходы (LTM)&lt;/span&gt;&lt;/td&gt;&lt;td style=&quot;width:363.5714285714285pt;white-space:nowrap;vertical-align:bottom;background-color:rgb(255,255,0);&quot;&gt;&lt;span style=&quot;vertical-align:baseline;&quot;&gt;Снижение в отношении Клиента соотношения показателей EBITDA / процентные расходы, устанавливаемого на каждую отчетную дату (по РСБУ), ниже уровня:\n\tс ближайшей отчетной даты (по РСБУ), следующей за датой заключения Договора, – 1,1 (Одной целой одной десятых) (включительно);\n\tс 30 июня 2025 г. – 1,3 (Одной целой трех десятых) (включительно);\n\tс 30 апреля 2026 г. – 1,5 (Одной целой пяти десятых) (включительно);\n\tс 30 сентября 2026 г. – 1,6 (Одной целой шести десятых) (включительно).&lt;/span&gt;&lt;/td&gt;&lt;td style=&quot;width:253.57142857142853pt;white-space:nowrap;text-align:left;vertical-align:middle;background-color:rgb(255,255,0);&quot;&gt;&lt;span style=&quot;font-family:Var(--typo-font-family);vertical-align:baseline;&quot;&gt;EBITDA/%&lt;/span&gt;&lt;/td&gt;&lt;td style=&quot;width:47.857142857142854pt;white-space:nowrap;text-align:center;vertical-align:top;background-color:rgb(255,255,0);&quot;&gt;&lt;span style=&quot;font-family:Var(--typo-font-family);vertical-align:baseline;&quot;&gt;&amp;gt;=&lt;/span&gt;&lt;/td&gt;&lt;td style=&quot;width:87.85714285714285pt;white-space:nowrap;text-align:right;vertical-align:bottom;background-color:rgb(255,255,0);&quot;&gt;&lt;span style=&quot;vertical-align:baseline;&quot;&gt;1,1-1,6&lt;/span&gt;&lt;/td&gt;&lt;td style=&quot;width:86.42857142857142pt;white-space:nowrap;text-align:left;vertical-align:middle;background-color:rgb(255,255,0);&quot;&gt;&lt;span style=&quot;font-family:Var(--typo-font-family);vertical-align:baseline;&quot;&gt;&lt;/span&gt;&lt;/td&gt;&lt;/tr&gt;&lt;tr style=&quot;height:nullpt&quot;&gt;&lt;td style=&quot;width:66.42857142857142pt;white-space:nowrap;vertical-align:bottom;&quot;&gt;&lt;span style=&quot;vertical-align:baseline;&quot;&gt;SF_2.1_V1&lt;/span&gt;&lt;/td&gt;&lt;td style=&quot;width:151.42857142857142pt;white-space:nowrap;vertical-align:bottom;&quot;&gt;&lt;span style=&quot;vertical-align:baseline;&quot;&gt;Соблюдение показателей: EBITDA / процентные расходы; OIBDA (LTM) / процентные расходы (LTM)&lt;/span&gt;&lt;/td&gt;&lt;td style=&quot;width:363.5714285714285pt;white-space:nowrap;vertical-align:bottom;&quot;&gt;&lt;span style=&quot;vertical-align:baseline;&quot;&gt;Снижение в отношении участников Группы, указанной в Перечне 1 Приложения «Состав Группы» к Договору, соотношения показателей EBITDA / процентные расходы, устанавливаемого на каждую отчетную дату (по РСБУ), ниже уровня:&lt;br&gt;с ближайшей отчетной даты (по РСБУ), следующей за датой заключения Договора, – 1,3 (Одной целой трех десятых) (включительно).&lt;/span&gt;&lt;/td&gt;&lt;td style=&quot;width:253.57142857142853pt;white-space:nowrap;text-align:left;vertical-align:middle;&quot;&gt;&lt;span style=&quot;font-family:Var(--typo-font-family);vertical-align:baseline;&quot;&gt;EBITDA/% по ГК&lt;/span&gt;&lt;/td&gt;&lt;td style=&quot;width:47.857142857142854pt;white-space:nowrap;text-align:center;vertical-align:top;&quot;&gt;&lt;span style=&quot;font-family:Var(--typo-font-family);vertical-align:baseline;&quot;&gt;&amp;gt;=&lt;/span&gt;&lt;/td&gt;&lt;td style=&quot;width:87.85714285714285pt;white-space:nowrap;vertical-align:bottom;&quot;&gt;&lt;span style=&quot;vertical-align:baseline;&quot;&gt;1,3&lt;/span&gt;&lt;/td&gt;&lt;td style=&quot;width:86.42857142857142pt;white-space:nowrap;text-align:left;vertical-align:middle;&quot;&gt;&lt;span style=&quot;font-family:Var(--typo-font-family);vertical-align:baseline;&quot;&gt;&lt;/span&gt;&lt;/td&gt;&lt;/tr&gt;&lt;tr style=&quot;height:nullpt&quot;&gt;&lt;td style=&quot;width:66.42857142857142pt;white-space:nowrap;vertical-align:bottom;&quot;&gt;&lt;span style=&quot;vertical-align:baseline;&quot;&gt;SF_2.1_V1&lt;/span&gt;&lt;/td&gt;&lt;td style=&quot;width:151.42857142857142pt;white-space:nowrap;vertical-align:bottom;&quot;&gt;&lt;span style=&quot;vertical-align:baseline;&quot;&gt;Соблюдение показателей: EBITDA / Ð¿роцентные расходы; OIBDA (LTM) / процентные расходы (LTM)&lt;/span&gt;&lt;/td&gt;&lt;td style=&quot;width:363.5714285714285pt;white-space:nowrap;vertical-align:bottom;&quot;&gt;&lt;span style=&quot;vertical-align:baseline;&quot;&gt;Снижение в отношении Клиента соотношения показателей EBITDA / процентные расходы, устанавливаемого на каждую отчетную дату (по РСБУ), ниже уровня:&lt;br&gt;с ближайшей отчетной даты (по РСБУ), следующей за датой заключения Договора, – 1,5 (Одной целой пяти десятых) (включительно).&lt;/span&gt;&lt;/td&gt;&lt;td style=&quot;width:253.57142857142853pt;white-space:nowrap;text-align:left;vertical-align:middle;&quot;&gt;&lt;span style=&quot;font-family:Var(--typo-font-family);vertical-align:baseline;&quot;&gt;EBITDA/%&lt;/span&gt;&lt;/td&gt;&lt;td style=&quot;width:47.857142857142854pt;white-space:nowrap;text-align:center;vertical-align:top;&quot;&gt;&lt;span style=&quot;font-family:Var(--typo-font-family);vertical-align:baseline;&quot;&gt;&amp;gt;=&lt;/span&gt;&lt;/td&gt;&lt;td style=&quot;width:87.85714285714285pt;white-space:nowrap;vertical-align:bottom;&quot;&gt;&lt;span style=&quot;vertical-align:baseline;&quot;&gt;1,5&lt;/span&gt;&lt;/td&gt;&lt;td&gt;&lt;/td&gt;&lt;/tr&gt;&lt;tr style=&quot;height:nullpt&quot;&gt;&lt;td style=&quot;width:66.42857142857142pt;white-space:nowrap;vertical-align:bottom;&quot;&gt;&lt;span style=&quot;vertical-align:baseline;&quot;&gt;SF_2.10_V1&lt;/span&gt;&lt;/td&gt;&lt;td style=&quot;width:151.42857142857142pt;white-space:nowrap;vertical-align:bottom;&quot;&gt;&lt;span style=&quot;vertical-align:baseline;&quot;&gt;Ограничение на выплату дивидендов / распределение чистой прибыли&lt;/span&gt;&lt;/td&gt;&lt;td style=&quot;width:363.5714285714285pt;white-space:nowrap;vertical-align:bottom;&quot;&gt;&lt;span style=&quot;vertical-align:baseline;&quot;&gt;Принятие решений Клиентом о выплате дивидендов акционерам / распределении чистой прибыли между участниками и/или членами без предварительного письменного согласования с Банком. Для рассмотрения Банком вопроса о согласовании решения о выплате дивидендов Банку предоставляется модель денежных потоков Клиента с прогнозом финансовых результатов, составленную до конца срока действия всех обязательств перед Банком, а также учитывающую текущий квартал и квартал, предшествующий текущему.&lt;/span&gt;&lt;/td&gt;&lt;td style=&quot;width:253.57142857142853pt;white-space:nowrap;text-align:left;vertical-align:middle;&quot;&gt;&lt;span style=&quot;font-family:Var(--typo-font-family);vertical-align:baseline;&quot;&gt;Ограничение на выплату дивидендов / распределение чистой прибыли&lt;/span&gt;&lt;/td&gt;&lt;td style=&quot;width:47.857142857142854pt;white-space:nowrap;text-align:center;vertical-align:top;&quot;&gt;&lt;span style=&quot;font-family:Var(--typo-font-family);vertical-align:baseline;&quot;&gt;&lt;/span&gt;&lt;/td&gt;&lt;td&gt;&lt;/td&gt;&lt;td&gt;&lt;/td&gt;&lt;/tr&gt;&lt;tr style=&quot;height:nullpt&quot;&gt;&lt;td style=&quot;width:66.42857142857142pt;white-space:nowrap;vertical-align:bottom;&quot;&gt;&lt;span style=&quot;vertical-align:baseline;&quot;&gt;SF_2.11_V1&lt;/span&gt;&lt;/td&gt;&lt;td style=&quot;width:151.42857142857142pt;white-space:nowrap;vertical-align:bottom;&quot;&gt;&lt;span style=&quot;vertical-align:baseline;&quot;&gt;Ограничение заимствований / предоставления поручительств и гарантийных обязательств&lt;/span&gt;&lt;/td&gt;&lt;td style=&quot;width:363.5714285714285pt;white-space:nowrap;vertical-align:bottom;&quot;&gt;&lt;span style=&quot;vertical-align:baseline;&quot;&gt;Заключение участниками Группы, указанной в Перечне 1 Приложения «Состав Группы» к Договору сделки(ок) и/или нескольких взаимосвязанных сделок, заключение которой(ых) приводит и/или может привести к превышению Общего размера привлеченных от третьих лиц заимствований суммы свыше 3 000 000 000 (Трех миллиардов) рублей (включительно), начиная с последнего календарного дня календарного квартала, в котором заключен Договор.&lt;/span&gt;&lt;/td&gt;&lt;td style=&quot;width:253.57142857142853pt;white-space:nowrap;text-align:left;vertical-align:middle;&quot;&gt;&lt;span style=&quot;font-family:Var(--typo-font-family);vertical-align:baseline;&quot;&gt;Запрет на привлечение заимствований&lt;/span&gt;&lt;/td&gt;&lt;td style=&quot;width:47.857142857142854pt;white-space:nowrap;text-align:center;vertical-align:top;&quot;&gt;&lt;span style=&quot;font-family:Var(--typo-font-family);vertical-align:baseline;&quot;&gt;&amp;gt;&lt;/span&gt;&lt;/td&gt;&lt;td style=&quot;width:87.85714285714285pt;white-space:nowrap;text-align:left;vertical-align:middle;&quot;&gt;&lt;span style=&quot;font-family:Var(--typo-font-family);vertical-align:baseline;&quot;&gt;3 000 000 000&lt;/span&gt;&lt;/td&gt;&lt;td style=&quot;width:86.42857142857142pt;white-space:nowrap;text-align:left;vertical-align:middle;&quot;&gt;&lt;span style=&quot;font-family:Var(--typo-font-family);vertical-align:baseline;&quot;&gt;рублей&lt;/span&gt;&lt;/td&gt;&lt;/tr&gt;&lt;/tbody&gt;&lt;/table&gt;" style="text;whiteSpace=wrap;html=1;" vertex="1" parent="1">
          <mxGeometry x="150" y="50" width="560" height="1170" as="geometry" />
        </mxCell>
      </root>
    </mxGraphModel>
  </diagram>
</mxfile>
